M48
; DRILL file {KiCad (7.0.0)} date Fri Mar 24 15:25:01 2023
; FORMAT={-:-/ absolute / inch / decimal}
; #@! TF.CreationDate,2023-03-24T15:25:01-07:00
; #@! TF.GenerationSoftware,Kicad,Pcbnew,(7.0.0)
; #@! TF.FileFunction,Plated,1,2,PTH
FMAT,2
INCH
; #@! TA.AperFunction,Plated,PTH,ViaDrill
T1C0.0157
; #@! TA.AperFunction,Plated,PTH,ComponentDrill
T2C0.0236
; #@! TA.AperFunction,Plated,PTH,ComponentDrill
T3C0.0315
; #@! TA.AperFunction,Plated,PTH,ComponentDrill
T4C0.0374
; #@! TA.AperFunction,Plated,PTH,ComponentDrill
T5C0.0394
; #@! TA.AperFunction,Plated,PTH,ComponentDrill
T6C0.1063
%
G90
G05
T1
X5.25Y-1.9
X5.2608Y-2.8
X5.35Y-3.1
X5.35Y-3.25
X5.4Y-2.35
X5.45Y-3.15
X5.45Y-3.2
X5.5702Y-2.8702
X5.6Y-2.35
X5.7Y-3.0
X5.7211Y-1.6767
X5.7211Y-2.5767
X5.7224Y-1.5776
X5.7224Y-2.4776
X5.7225Y-1.7775
X5.7225Y-2.6775
X5.75Y-3.15
X5.75Y-3.2
X5.8551Y-1.6728
X5.8551Y-2.5728
X5.9Y-1.75
X5.9Y-2.65
X5.9035Y-1.975
X5.9035Y-2.875
X6.05Y-1.85
X6.05Y-2.75
X6.4Y-1.4
X6.4Y-2.3
X6.6Y-3.0
X6.65Y-2.55
X6.669Y-3.069
X6.7Y-2.7
X6.7Y-3.3
T2
X5.3Y-2.1
X5.3Y-3.0
X5.3787Y-2.1
X5.3787Y-3.0
X6.9213Y-1.4
X6.9213Y-2.3
X7.0Y-1.4
X7.0Y-2.3
T3
X5.35Y-2.4
X5.35Y-2.8
X5.5Y-1.4
X5.5Y-1.5
X5.5Y-1.6
X5.5Y-1.7
X5.5Y-1.8
X5.5Y-1.9
X5.5Y-2.0
X5.5Y-2.1
X5.5Y-2.3
X5.5Y-2.4
X5.5Y-2.5
X5.5Y-2.6
X5.5Y-2.7
X5.5Y-2.8
X5.5Y-2.9
X5.5Y-3.0
X5.8Y-1.4
X5.8Y-1.5
X5.8Y-1.6
X5.8Y-1.7
X5.8Y-1.8
X5.8Y-1.9
X5.8Y-2.0
X5.8Y-2.1
X5.8Y-2.3
X5.8Y-2.4
X5.8Y-2.5
X5.8Y-2.6
X5.8Y-2.7
X5.8Y-2.8
X5.8Y-2.9
X5.8Y-3.0
X6.5Y-1.4
X6.5Y-1.5
X6.5Y-1.6
X6.5Y-1.7
X6.5Y-1.8
X6.5Y-1.9
X6.5Y-2.0
X6.5Y-2.1
X6.5Y-2.3
X6.5Y-2.4
X6.5Y-2.5
X6.5Y-2.6
X6.5Y-2.7
X6.5Y-2.8
X6.5Y-2.9
X6.5Y-3.0
X6.8Y-1.4
X6.8Y-1.5
X6.8Y-1.6
X6.8Y-1.7
X6.8Y-1.8
X6.8Y-1.9
X6.8Y-2.0
X6.8Y-2.1
X6.8Y-2.3
X6.8Y-2.4
X6.8Y-2.5
X6.8Y-2.6
X6.8Y-2.7
X6.8Y-2.8
X6.8Y-2.9
X6.8Y-3.0
T4
X5.5118Y-3.4
X5.6102Y-3.4
X5.7087Y-3.4
X5.8071Y-3.4
X5.9055Y-3.4
X6.0039Y-3.4
X6.6929Y-3.4
X6.7913Y-3.4
X6.8898Y-3.4
T5
X6.1Y-1.4
X6.1Y-1.5
X6.1Y-1.6
X6.1Y-1.7
X6.1Y-1.8
X6.1Y-1.9
X6.1Y-2.0
X6.1Y-2.1
X6.1Y-2.2
X6.1Y-2.3
X6.1Y-2.4
X6.1Y-2.5
X6.1Y-2.6
X6.1Y-2.7
X6.1Y-2.8
X6.1Y-2.9
X6.1Y-3.0
X6.2Y-1.4
X6.2Y-1.5
X6.2Y-1.6
X6.2Y-1.7
X6.2Y-1.8
X6.2Y-1.9
X6.2Y-2.0
X6.2Y-2.1
X6.2Y-2.2
X6.2Y-2.3
X6.2Y-2.4
X6.2Y-2.5
X6.2Y-2.6
X6.2Y-2.7
X6.2Y-2.8
X6.2Y-2.9
X6.2Y-3.0
X6.3Y-3.4
X6.4Y-3.4
X6.45Y-3.1453
X6.55Y-3.1453
T6
X5.2559Y-1.3189
X5.2559Y-3.6024
X7.185Y-1.3189
X7.185Y-3.6024
T0
M30
