%TF.GenerationSoftware,KiCad,Pcbnew,(7.0.0)*%
%TF.CreationDate,2023-03-24T15:25:03-07:00*%
%TF.ProjectId,tiaan_fsr_exp,74696161-6e5f-4667-9372-5f6578702e6b,rev?*%
%TF.SameCoordinates,Original*%
%TF.FileFunction,Copper,L1,Top*%
%TF.FilePolarity,Positive*%
%FSLAX46Y46*%
G04 Gerber Fmt 4.6, Leading zero omitted, Abs format (unit mm)*
G04 Created by KiCad (PCBNEW (7.0.0)) date 2023-03-24 15:25:03*
%MOMM*%
%LPD*%
G01*
G04 APERTURE LIST*
G04 Aperture macros list*
%AMRoundRect*
0 Rectangle with rounded corners*
0 $1 Rounding radius*
0 $2 $3 $4 $5 $6 $7 $8 $9 X,Y pos of 4 corners*
0 Add a 4 corners polygon primitive as box body*
4,1,4,$2,$3,$4,$5,$6,$7,$8,$9,$2,$3,0*
0 Add four circle primitives for the rounded corners*
1,1,$1+$1,$2,$3*
1,1,$1+$1,$4,$5*
1,1,$1+$1,$6,$7*
1,1,$1+$1,$8,$9*
0 Add four rect primitives between the rounded corners*
20,1,$1+$1,$2,$3,$4,$5,0*
20,1,$1+$1,$4,$5,$6,$7,0*
20,1,$1+$1,$6,$7,$8,$9,0*
20,1,$1+$1,$8,$9,$2,$3,0*%
G04 Aperture macros list end*
%TA.AperFunction,ComponentPad*%
%ADD10R,1.200000X1.200000*%
%TD*%
%TA.AperFunction,ComponentPad*%
%ADD11C,1.200000*%
%TD*%
%TA.AperFunction,ComponentPad*%
%ADD12R,1.700000X1.700000*%
%TD*%
%TA.AperFunction,ComponentPad*%
%ADD13O,1.700000X1.700000*%
%TD*%
%TA.AperFunction,ComponentPad*%
%ADD14C,1.600000*%
%TD*%
%TA.AperFunction,ComponentPad*%
%ADD15O,1.600000X1.600000*%
%TD*%
%TA.AperFunction,ComponentPad*%
%ADD16RoundRect,0.250000X-0.600000X-0.725000X0.600000X-0.725000X0.600000X0.725000X-0.600000X0.725000X0*%
%TD*%
%TA.AperFunction,ComponentPad*%
%ADD17O,1.700000X1.950000*%
%TD*%
%TA.AperFunction,ComponentPad*%
%ADD18C,4.700000*%
%TD*%
%TA.AperFunction,ComponentPad*%
%ADD19RoundRect,0.250000X-0.600000X-0.600000X0.600000X-0.600000X0.600000X0.600000X-0.600000X0.600000X0*%
%TD*%
%TA.AperFunction,ComponentPad*%
%ADD20C,1.700000*%
%TD*%
%TA.AperFunction,ComponentPad*%
%ADD21R,1.600000X1.600000*%
%TD*%
%TA.AperFunction,ViaPad*%
%ADD22C,0.800000*%
%TD*%
%TA.AperFunction,Conductor*%
%ADD23C,0.250000*%
%TD*%
G04 APERTURE END LIST*
D10*
%TO.P,C4,1*%
%TO.N,VCC*%
X136619999Y-76199999D03*
D11*
%TO.P,C4,2*%
%TO.N,GND*%
X134620000Y-76200000D03*
%TD*%
D10*
%TO.P,C2,1*%
%TO.N,VCC*%
X175799999Y-58419999D03*
D11*
%TO.P,C2,2*%
%TO.N,GND*%
X177800000Y-58420000D03*
%TD*%
D12*
%TO.P,J3,1,Pin_1*%
%TO.N,VCC*%
X160019999Y-86359999D03*
D13*
%TO.P,J3,2,Pin_2*%
%TO.N,GND*%
X162559999Y-86359999D03*
%TD*%
D14*
%TO.P,R1,1*%
%TO.N,Net-(J1-Pin_6)*%
X135890000Y-60960000D03*
D15*
%TO.P,R1,2*%
%TO.N,GND*%
X135889999Y-71119999D03*
%TD*%
D16*
%TO.P,J2,1,Pin_1*%
%TO.N,Net-(J2-Pin_1)*%
X170000000Y-86360000D03*
D17*
%TO.P,J2,2,Pin_2*%
%TO.N,Net-(J2-Pin_2)*%
X172499999Y-86359999D03*
%TO.P,J2,3,Pin_3*%
%TO.N,Net-(J2-Pin_3)*%
X174999999Y-86359999D03*
%TD*%
D18*
%TO.P,H1,1*%
%TO.N,N/C*%
X182500000Y-33500000D03*
%TD*%
%TO.P,H3,1*%
%TO.N,N/C*%
X133500000Y-91500000D03*
%TD*%
%TO.P,H4,1*%
%TO.N,N/C*%
X133500000Y-33500000D03*
%TD*%
D19*
%TO.P,J4,1,Pin_1*%
%TO.N,Net-(J4-Pin_1)*%
X154940000Y-35560000D03*
D20*
%TO.P,J4,2,Pin_2*%
%TO.N,Net-(J4-Pin_2)*%
X157480000Y-35560000D03*
%TO.P,J4,3,Pin_3*%
%TO.N,Net-(J4-Pin_3)*%
X154940000Y-38100000D03*
%TO.P,J4,4,Pin_4*%
%TO.N,Net-(J4-Pin_4)*%
X157480000Y-38100000D03*
%TO.P,J4,5,Pin_5*%
%TO.N,Net-(J4-Pin_5)*%
X154940000Y-40640000D03*
%TO.P,J4,6,Pin_6*%
%TO.N,Net-(J4-Pin_6)*%
X157480000Y-40640000D03*
%TO.P,J4,7,Pin_7*%
%TO.N,Net-(J4-Pin_7)*%
X154940000Y-43180000D03*
%TO.P,J4,8,Pin_8*%
%TO.N,Net-(J4-Pin_8)*%
X157480000Y-43180000D03*
%TO.P,J4,9,Pin_9*%
%TO.N,Net-(J4-Pin_9)*%
X154940000Y-45720000D03*
%TO.P,J4,10,Pin_10*%
%TO.N,Net-(J4-Pin_10)*%
X157480000Y-45720000D03*
%TO.P,J4,11,Pin_11*%
%TO.N,Net-(J4-Pin_11)*%
X154940000Y-48260000D03*
%TO.P,J4,12,Pin_12*%
%TO.N,Net-(J4-Pin_12)*%
X157480000Y-48260000D03*
%TO.P,J4,13,Pin_13*%
%TO.N,Net-(J4-Pin_13)*%
X154940000Y-50800000D03*
%TO.P,J4,14,Pin_14*%
%TO.N,Net-(J4-Pin_14)*%
X157480000Y-50800000D03*
%TO.P,J4,15,Pin_15*%
%TO.N,Net-(J4-Pin_15)*%
X154940000Y-53340000D03*
%TO.P,J4,16,Pin_16*%
%TO.N,Net-(J4-Pin_16)*%
X157480000Y-53340000D03*
%TO.P,J4,17,Pin_17*%
%TO.N,unconnected-(J4-Pin_17-Pad17)*%
X154940000Y-55880000D03*
%TO.P,J4,18,Pin_18*%
%TO.N,unconnected-(J4-Pin_18-Pad18)*%
X157480000Y-55880000D03*
%TO.P,J4,19,Pin_19*%
%TO.N,Net-(J4-Pin_19)*%
X154940000Y-58420000D03*
%TO.P,J4,20,Pin_20*%
%TO.N,Net-(J4-Pin_20)*%
X157480000Y-58420000D03*
%TO.P,J4,21,Pin_21*%
%TO.N,Net-(J4-Pin_21)*%
X154940000Y-60960000D03*
%TO.P,J4,22,Pin_22*%
%TO.N,Net-(J4-Pin_22)*%
X157480000Y-60960000D03*
%TO.P,J4,23,Pin_23*%
%TO.N,Net-(J4-Pin_23)*%
X154940000Y-63500000D03*
%TO.P,J4,24,Pin_24*%
%TO.N,Net-(J4-Pin_24)*%
X157480000Y-63500000D03*
%TO.P,J4,25,Pin_25*%
%TO.N,Net-(J4-Pin_25)*%
X154940000Y-66040000D03*
%TO.P,J4,26,Pin_26*%
%TO.N,Net-(J4-Pin_26)*%
X157480000Y-66040000D03*
%TO.P,J4,27,Pin_27*%
%TO.N,Net-(J4-Pin_27)*%
X154940000Y-68580000D03*
%TO.P,J4,28,Pin_28*%
%TO.N,Net-(J4-Pin_28)*%
X157480000Y-68580000D03*
%TO.P,J4,29,Pin_29*%
%TO.N,Net-(J4-Pin_29)*%
X154940000Y-71120000D03*
%TO.P,J4,30,Pin_30*%
%TO.N,Net-(J4-Pin_30)*%
X157480000Y-71120000D03*
%TO.P,J4,31,Pin_31*%
%TO.N,Net-(J4-Pin_31)*%
X154940000Y-73660000D03*
%TO.P,J4,32,Pin_32*%
%TO.N,Net-(J4-Pin_32)*%
X157480000Y-73660000D03*
%TO.P,J4,33,Pin_33*%
%TO.N,Net-(J4-Pin_33)*%
X154940000Y-76200000D03*
%TO.P,J4,34,Pin_34*%
%TO.N,Net-(J4-Pin_34)*%
X157480000Y-76200000D03*
%TD*%
D21*
%TO.P,MUX1,1,A4*%
%TO.N,Net-(J4-Pin_9)*%
X147319999Y-53339999D03*
D15*
%TO.P,MUX1,2,A6*%
%TO.N,Net-(J4-Pin_13)*%
X147319999Y-50799999D03*
%TO.P,MUX1,3,A*%
%TO.N,Net-(J1-Pin_6)*%
X147319999Y-48259999D03*
%TO.P,MUX1,4,A7*%
%TO.N,Net-(J4-Pin_15)*%
X147319999Y-45719999D03*
%TO.P,MUX1,5,A5*%
%TO.N,Net-(J4-Pin_11)*%
X147319999Y-43179999D03*
%TO.P,MUX1,6,~{E}*%
%TO.N,Net-(J1-Pin_4)*%
X147319999Y-40639999D03*
%TO.P,MUX1,7,VEE*%
%TO.N,GND*%
X147319999Y-38099999D03*
%TO.P,MUX1,8,GND*%
X147319999Y-35559999D03*
%TO.P,MUX1,9,S2*%
%TO.N,Net-(J1-Pin_3)*%
X139699999Y-35559999D03*
%TO.P,MUX1,10,S1*%
%TO.N,Net-(J1-Pin_2)*%
X139699999Y-38099999D03*
%TO.P,MUX1,11,S0*%
%TO.N,Net-(J1-Pin_1)*%
X139699999Y-40639999D03*
%TO.P,MUX1,12,A3*%
%TO.N,Net-(J4-Pin_7)*%
X139699999Y-43179999D03*
%TO.P,MUX1,13,A0*%
%TO.N,Net-(J4-Pin_1)*%
X139699999Y-45719999D03*
%TO.P,MUX1,14,A1*%
%TO.N,Net-(J4-Pin_3)*%
X139699999Y-48259999D03*
%TO.P,MUX1,15,A2*%
%TO.N,Net-(J4-Pin_5)*%
X139699999Y-50799999D03*
%TO.P,MUX1,16,VCC*%
%TO.N,VCC*%
X139699999Y-53339999D03*
%TD*%
D10*
%TO.P,C3,1*%
%TO.N,VCC*%
X136619999Y-53339999D03*
D11*
%TO.P,C3,2*%
%TO.N,GND*%
X134620000Y-53340000D03*
%TD*%
D21*
%TO.P,SR2,1,QB*%
%TO.N,Net-(J4-Pin_22)*%
X165099999Y-58419999D03*
D15*
%TO.P,SR2,2,QC*%
%TO.N,Net-(J4-Pin_24)*%
X165099999Y-60959999D03*
%TO.P,SR2,3,QD*%
%TO.N,Net-(J4-Pin_26)*%
X165099999Y-63499999D03*
%TO.P,SR2,4,QE*%
%TO.N,Net-(J4-Pin_28)*%
X165099999Y-66039999D03*
%TO.P,SR2,5,QF*%
%TO.N,Net-(J4-Pin_30)*%
X165099999Y-68579999D03*
%TO.P,SR2,6,QG*%
%TO.N,Net-(J4-Pin_32)*%
X165099999Y-71119999D03*
%TO.P,SR2,7,QH*%
%TO.N,Net-(J4-Pin_34)*%
X165099999Y-73659999D03*
%TO.P,SR2,8,GND*%
%TO.N,GND*%
X165099999Y-76199999D03*
%TO.P,SR2,9,QH'*%
%TO.N,unconnected-(SR2-QH'-Pad9)*%
X172719999Y-76199999D03*
%TO.P,SR2,10,~{SRCLR}*%
%TO.N,VCC*%
X172719999Y-73659999D03*
%TO.P,SR2,11,SRCLK*%
%TO.N,Net-(J2-Pin_3)*%
X172719999Y-71119999D03*
%TO.P,SR2,12,RCLK*%
%TO.N,Net-(J2-Pin_2)*%
X172719999Y-68579999D03*
%TO.P,SR2,13,~{OE}*%
%TO.N,GND*%
X172719999Y-66039999D03*
%TO.P,SR2,14,SER*%
%TO.N,Net-(SR1-QH')*%
X172719999Y-63499999D03*
%TO.P,SR2,15,QA*%
%TO.N,Net-(J4-Pin_20)*%
X172719999Y-60959999D03*
%TO.P,SR2,16,VCC*%
%TO.N,VCC*%
X172719999Y-58419999D03*
%TD*%
D21*
%TO.P,SR1,1,QB*%
%TO.N,Net-(J4-Pin_4)*%
X165099999Y-35559999D03*
D15*
%TO.P,SR1,2,QC*%
%TO.N,Net-(J4-Pin_6)*%
X165099999Y-38099999D03*
%TO.P,SR1,3,QD*%
%TO.N,Net-(J4-Pin_8)*%
X165099999Y-40639999D03*
%TO.P,SR1,4,QE*%
%TO.N,Net-(J4-Pin_10)*%
X165099999Y-43179999D03*
%TO.P,SR1,5,QF*%
%TO.N,Net-(J4-Pin_12)*%
X165099999Y-45719999D03*
%TO.P,SR1,6,QG*%
%TO.N,Net-(J4-Pin_14)*%
X165099999Y-48259999D03*
%TO.P,SR1,7,QH*%
%TO.N,Net-(J4-Pin_16)*%
X165099999Y-50799999D03*
%TO.P,SR1,8,GND*%
%TO.N,GND*%
X165099999Y-53339999D03*
%TO.P,SR1,9,QH'*%
%TO.N,Net-(SR1-QH')*%
X172719999Y-53339999D03*
%TO.P,SR1,10,~{SRCLR}*%
%TO.N,VCC*%
X172719999Y-50799999D03*
%TO.P,SR1,11,SRCLK*%
%TO.N,Net-(J2-Pin_3)*%
X172719999Y-48259999D03*
%TO.P,SR1,12,RCLK*%
%TO.N,Net-(J2-Pin_2)*%
X172719999Y-45719999D03*
%TO.P,SR1,13,~{OE}*%
%TO.N,GND*%
X172719999Y-43179999D03*
%TO.P,SR1,14,SER*%
%TO.N,Net-(J2-Pin_1)*%
X172719999Y-40639999D03*
%TO.P,SR1,15,QA*%
%TO.N,Net-(J4-Pin_2)*%
X172719999Y-38099999D03*
%TO.P,SR1,16,VCC*%
%TO.N,VCC*%
X172719999Y-35559999D03*
%TD*%
D21*
%TO.P,MUX2,1,A4*%
%TO.N,Net-(J4-Pin_27)*%
X147319999Y-76199999D03*
D15*
%TO.P,MUX2,2,A6*%
%TO.N,Net-(J4-Pin_31)*%
X147319999Y-73659999D03*
%TO.P,MUX2,3,A*%
%TO.N,Net-(J1-Pin_6)*%
X147319999Y-71119999D03*
%TO.P,MUX2,4,A7*%
%TO.N,Net-(J4-Pin_33)*%
X147319999Y-68579999D03*
%TO.P,MUX2,5,A5*%
%TO.N,Net-(J4-Pin_29)*%
X147319999Y-66039999D03*
%TO.P,MUX2,6,~{E}*%
%TO.N,Net-(J1-Pin_5)*%
X147319999Y-63499999D03*
%TO.P,MUX2,7,VEE*%
%TO.N,GND*%
X147319999Y-60959999D03*
%TO.P,MUX2,8,GND*%
X147319999Y-58419999D03*
%TO.P,MUX2,9,S2*%
%TO.N,Net-(J1-Pin_3)*%
X139699999Y-58419999D03*
%TO.P,MUX2,10,S1*%
%TO.N,Net-(J1-Pin_2)*%
X139699999Y-60959999D03*
%TO.P,MUX2,11,S0*%
%TO.N,Net-(J1-Pin_1)*%
X139699999Y-63499999D03*
%TO.P,MUX2,12,A3*%
%TO.N,Net-(J4-Pin_25)*%
X139699999Y-66039999D03*
%TO.P,MUX2,13,A0*%
%TO.N,Net-(J4-Pin_19)*%
X139699999Y-68579999D03*
%TO.P,MUX2,14,A1*%
%TO.N,Net-(J4-Pin_21)*%
X139699999Y-71119999D03*
%TO.P,MUX2,15,A2*%
%TO.N,Net-(J4-Pin_23)*%
X139699999Y-73659999D03*
%TO.P,MUX2,16,VCC*%
%TO.N,VCC*%
X139699999Y-76199999D03*
%TD*%
D10*
%TO.P,C1,1*%
%TO.N,VCC*%
X175799999Y-35559999D03*
D11*
%TO.P,C1,2*%
%TO.N,GND*%
X177800000Y-35560000D03*
%TD*%
D12*
%TO.P,J5,1,Pin_1*%
%TO.N,Net-(J2-Pin_3)*%
X166369999Y-79889999D03*
D13*
%TO.P,J5,2,Pin_2*%
%TO.N,Net-(J2-Pin_2)*%
X163829999Y-79889999D03*
%TD*%
D16*
%TO.P,J1,1,Pin_1*%
%TO.N,Net-(J1-Pin_1)*%
X140000000Y-86360000D03*
D17*
%TO.P,J1,2,Pin_2*%
%TO.N,Net-(J1-Pin_2)*%
X142499999Y-86359999D03*
%TO.P,J1,3,Pin_3*%
%TO.N,Net-(J1-Pin_3)*%
X144999999Y-86359999D03*
%TO.P,J1,4,Pin_4*%
%TO.N,Net-(J1-Pin_4)*%
X147499999Y-86359999D03*
%TO.P,J1,5,Pin_5*%
%TO.N,Net-(J1-Pin_5)*%
X149999999Y-86359999D03*
%TO.P,J1,6,Pin_6*%
%TO.N,Net-(J1-Pin_6)*%
X152499999Y-86359999D03*
%TD*%
D18*
%TO.P,H2,1*%
%TO.N,N/C*%
X182500000Y-91500000D03*
%TD*%
D22*
%TO.N,VCC*%
X135890000Y-78740000D03*
X135890000Y-82550000D03*
%TO.N,Net-(J2-Pin_1)*%
X169392299Y-77952299D03*
X170180000Y-83820000D03*
X167640000Y-76200000D03*
%TO.N,Net-(J2-Pin_2)*%
X168910000Y-64770000D03*
%TO.N,Net-(J2-Pin_3)*%
X170180000Y-68580000D03*
%TO.N,Net-(J1-Pin_4)*%
X138430000Y-81280000D03*
X146050000Y-81280000D03*
X133350000Y-48260000D03*
%TO.N,Net-(J1-Pin_5)*%
X146050000Y-80010000D03*
X138430000Y-80010000D03*
X133624999Y-71120000D03*
%TO.N,Net-(J1-Pin_6)*%
X144780000Y-76200000D03*
X137160000Y-59690000D03*
X141482300Y-72902300D03*
X142240000Y-59690000D03*
%TO.N,Net-(J4-Pin_31)*%
X149949500Y-73025000D03*
X153670000Y-69850000D03*
%TO.N,Net-(J4-Pin_27)*%
X149860000Y-67310000D03*
%TO.N,Net-(J4-Pin_25)*%
X148719503Y-65349500D03*
%TO.N,Net-(J4-Pin_23)*%
X145350248Y-68009751D03*
%TO.N,Net-(J4-Pin_21)*%
X145316991Y-65447661D03*
%TO.N,Net-(J4-Pin_20)*%
X162560000Y-58420000D03*
%TO.N,Net-(J4-Pin_19)*%
X145349148Y-62930852D03*
%TO.N,Net-(J4-Pin_13)*%
X153670000Y-46990000D03*
X149949500Y-50165000D03*
%TO.N,Net-(J4-Pin_9)*%
X149860000Y-44450000D03*
%TO.N,Net-(J4-Pin_7)*%
X148719503Y-42489500D03*
%TO.N,Net-(J4-Pin_5)*%
X145350248Y-45149751D03*
%TO.N,Net-(J4-Pin_3)*%
X145316991Y-42587661D03*
%TO.N,Net-(J4-Pin_2)*%
X162560000Y-35560000D03*
%TO.N,Net-(J4-Pin_1)*%
X145349148Y-40070852D03*
%TD*%
D23*
%TO.N,VCC*%
X160020000Y-86360000D02*
X160020000Y-88900000D01*
X172720000Y-73660000D02*
X175800000Y-73660000D01*
X175800000Y-35560000D02*
X172720000Y-35560000D01*
X135890000Y-82550000D02*
X135890000Y-86360000D01*
X172720000Y-50800000D02*
X175800000Y-50800000D01*
X175800000Y-58420000D02*
X172720000Y-58420000D01*
X136620000Y-53340000D02*
X139700000Y-53340000D01*
X175800000Y-58420000D02*
X175800000Y-73660000D01*
X158750000Y-88900000D02*
X160020000Y-88900000D01*
X177800000Y-82415000D02*
X175800000Y-80415000D01*
X175800000Y-80415000D02*
X175800000Y-73660000D01*
X136620000Y-78010000D02*
X136620000Y-76200000D01*
X177800000Y-87630000D02*
X177800000Y-82415000D01*
X175800000Y-50800000D02*
X175800000Y-58420000D01*
X136620000Y-53340000D02*
X134620000Y-55340000D01*
X160020000Y-88900000D02*
X176530000Y-88900000D01*
X135890000Y-86360000D02*
X138430000Y-88900000D01*
X134620000Y-55340000D02*
X134620000Y-74200000D01*
X175800000Y-35560000D02*
X175800000Y-50800000D01*
X176530000Y-88900000D02*
X177800000Y-87630000D01*
X134620000Y-74200000D02*
X136620000Y-76200000D01*
X135890000Y-78740000D02*
X136620000Y-78010000D01*
X136620000Y-76200000D02*
X139700000Y-76200000D01*
X138430000Y-88900000D02*
X158750000Y-88900000D01*
%TO.N,Net-(J2-Pin_1)*%
X167640000Y-71120000D02*
X167640000Y-76200000D01*
X169392299Y-77952299D02*
X170180000Y-78740000D01*
X167640000Y-45720000D02*
X172720000Y-40640000D01*
X170180000Y-78740000D02*
X170180000Y-83820000D01*
X167640000Y-71120000D02*
X167640000Y-45720000D01*
%TO.N,Net-(J2-Pin_2)*%
X168910000Y-76200000D02*
X166395000Y-78715000D01*
X168910000Y-72390000D02*
X168910000Y-76200000D01*
X165100000Y-83760000D02*
X166400000Y-85060000D01*
X163830000Y-79890000D02*
X165100000Y-81160000D01*
X168910000Y-64770000D02*
X168910000Y-49530000D01*
X166395000Y-78715000D02*
X165005000Y-78715000D01*
X165100000Y-81160000D02*
X165100000Y-83760000D01*
X171200000Y-85060000D02*
X172500000Y-86360000D01*
X166400000Y-85060000D02*
X171200000Y-85060000D01*
X168910000Y-49530000D02*
X172720000Y-45720000D01*
X165005000Y-78715000D02*
X163830000Y-79890000D01*
X172720000Y-68580000D02*
X168910000Y-72390000D01*
%TO.N,Net-(J2-Pin_3)*%
X170180000Y-68580000D02*
X170180000Y-50800000D01*
X170180000Y-50800000D02*
X172720000Y-48260000D01*
X173249999Y-84610000D02*
X174930977Y-86290978D01*
X170180000Y-76140000D02*
X170180000Y-73660000D01*
X166370000Y-79890000D02*
X166370000Y-83820000D01*
X166370000Y-79890000D02*
X166430000Y-79890000D01*
X170180000Y-73660000D02*
X172720000Y-71120000D01*
X167160000Y-84610000D02*
X173249999Y-84610000D01*
X166430000Y-79890000D02*
X170180000Y-76140000D01*
X166370000Y-83820000D02*
X167160000Y-84610000D01*
%TO.N,Net-(SR1-QH')*%
X172720000Y-63500000D02*
X171450000Y-62230000D01*
X171450000Y-62230000D02*
X171450000Y-54610000D01*
X171450000Y-54610000D02*
X172720000Y-53340000D01*
%TO.N,Net-(J1-Pin_1)*%
X140970000Y-74807652D02*
X142240000Y-73537652D01*
X142240000Y-73537652D02*
X142240000Y-71120000D01*
X140970000Y-64770000D02*
X139700000Y-63500000D01*
X140970000Y-85390000D02*
X140970000Y-74807652D01*
X137980000Y-61780000D02*
X137980000Y-57597208D01*
X142240000Y-71120000D02*
X140970000Y-69850000D01*
X140970000Y-54607208D02*
X140970000Y-41910000D01*
X139700000Y-63500000D02*
X137980000Y-61780000D01*
X137980000Y-57597208D02*
X140970000Y-54607208D01*
X140970000Y-41910000D02*
X139700000Y-40640000D01*
X140000000Y-86360000D02*
X140970000Y-85390000D01*
X140970000Y-69850000D02*
X140970000Y-64770000D01*
%TO.N,Net-(J1-Pin_2)*%
X142240000Y-40640000D02*
X139700000Y-38100000D01*
X138430000Y-59690000D02*
X138430000Y-57783604D01*
X142240000Y-75563604D02*
X143510000Y-74293604D01*
X139700000Y-60960000D02*
X138430000Y-59690000D01*
X142500000Y-86360000D02*
X142240000Y-86100000D01*
X142240000Y-63500000D02*
X139700000Y-60960000D01*
X142240000Y-68580000D02*
X142240000Y-63500000D01*
X138430000Y-57783604D02*
X142240000Y-53973604D01*
X143510000Y-69850000D02*
X142240000Y-68580000D01*
X143510000Y-74293604D02*
X143510000Y-69850000D01*
X142240000Y-53973604D02*
X142240000Y-40640000D01*
X142240000Y-86100000D02*
X142240000Y-75563604D01*
%TO.N,Net-(J1-Pin_3)*%
X139700000Y-58420000D02*
X143510000Y-62230000D01*
X143510000Y-76444695D02*
X143510000Y-84870000D01*
X144780000Y-75174695D02*
X143510000Y-76444695D01*
X143510000Y-39370000D02*
X139700000Y-35560000D01*
X143510000Y-84870000D02*
X145000000Y-86360000D01*
X139700000Y-57150000D02*
X143510000Y-53340000D01*
X143510000Y-62230000D02*
X143510000Y-67946396D01*
X139700000Y-58420000D02*
X139700000Y-57150000D01*
X143510000Y-53340000D02*
X143510000Y-39370000D01*
X143510000Y-67946396D02*
X144780000Y-69216396D01*
X144780000Y-69216396D02*
X144780000Y-75174695D01*
%TO.N,Net-(J1-Pin_4)*%
X146050000Y-81280000D02*
X147320000Y-81280000D01*
X135254310Y-81280000D02*
X138430000Y-81280000D01*
X147320000Y-81280000D02*
X148590000Y-82550000D01*
X132900499Y-48709501D02*
X132900499Y-78926189D01*
X148590000Y-82550000D02*
X148590000Y-85270000D01*
X148590000Y-85270000D02*
X147500000Y-86360000D01*
X133350000Y-48260000D02*
X132900499Y-48709501D01*
X132900499Y-78926189D02*
X135254310Y-81280000D01*
%TO.N,Net-(J1-Pin_5)*%
X134620706Y-80010000D02*
X138430000Y-80010000D01*
X133350000Y-71394999D02*
X133350000Y-78739294D01*
X133624999Y-71120000D02*
X133350000Y-71394999D01*
X146050000Y-80010000D02*
X147320000Y-80010000D01*
X149860000Y-82550000D02*
X149860000Y-86220000D01*
X149860000Y-86220000D02*
X150000000Y-86360000D01*
X133350000Y-78739294D02*
X134620706Y-80010000D01*
X147320000Y-80010000D02*
X149860000Y-82550000D01*
%TO.N,Net-(J1-Pin_6)*%
X141482300Y-72902300D02*
X141115000Y-72535000D01*
X152500000Y-83920000D02*
X152500000Y-86360000D01*
X137160000Y-59690000D02*
X135890000Y-60960000D01*
X139524009Y-72535000D02*
X137160000Y-70170991D01*
X144591991Y-59690000D02*
X142240000Y-59690000D01*
X144780000Y-76200000D02*
X152500000Y-83920000D01*
X144591991Y-50988009D02*
X144591991Y-59690000D01*
X144591991Y-68391991D02*
X147320000Y-71120000D01*
X147320000Y-48260000D02*
X144591991Y-50988009D01*
X141115000Y-72535000D02*
X139524009Y-72535000D01*
X137160000Y-70170991D02*
X137160000Y-62230000D01*
X144591991Y-59690000D02*
X144591991Y-68391991D01*
X137160000Y-62230000D02*
X135890000Y-60960000D01*
%TO.N,Net-(J4-Pin_34)*%
X162560000Y-76200000D02*
X165100000Y-73660000D01*
X157480000Y-76200000D02*
X162560000Y-76200000D01*
%TO.N,Net-(J4-Pin_33)*%
X149225000Y-78105000D02*
X153035000Y-78105000D01*
X148445000Y-69705000D02*
X148445000Y-77325000D01*
X147320000Y-68580000D02*
X148445000Y-69705000D01*
X153035000Y-78105000D02*
X154940000Y-76200000D01*
X148445000Y-77325000D02*
X149225000Y-78105000D01*
%TO.N,Net-(J4-Pin_32)*%
X157480000Y-73660000D02*
X162560000Y-73660000D01*
X162560000Y-73660000D02*
X165100000Y-71120000D01*
%TO.N,Net-(J4-Pin_31)*%
X149949500Y-73025000D02*
X149949500Y-68490500D01*
X153670000Y-68580000D02*
X153670000Y-69850000D01*
X151130000Y-67310000D02*
X152400000Y-67310000D01*
X149949500Y-68490500D02*
X151130000Y-67310000D01*
X152400000Y-67310000D02*
X153670000Y-68580000D01*
%TO.N,Net-(J4-Pin_30)*%
X157480000Y-71120000D02*
X162560000Y-71120000D01*
X162560000Y-71120000D02*
X165100000Y-68580000D01*
%TO.N,Net-(J4-Pin_29)*%
X149225000Y-67945000D02*
X149225000Y-76200000D01*
X153670000Y-75565000D02*
X153670000Y-72390000D01*
X149860000Y-76835000D02*
X152400000Y-76835000D01*
X149225000Y-76200000D02*
X149860000Y-76835000D01*
X153670000Y-72390000D02*
X154940000Y-71120000D01*
X152400000Y-76835000D02*
X153670000Y-75565000D01*
X147320000Y-66040000D02*
X149225000Y-67945000D01*
%TO.N,Net-(J4-Pin_28)*%
X162560000Y-68580000D02*
X165100000Y-66040000D01*
X157480000Y-68580000D02*
X162560000Y-68580000D01*
%TO.N,Net-(J4-Pin_27)*%
X150680000Y-66490000D02*
X152850000Y-66490000D01*
X152850000Y-66490000D02*
X154940000Y-68580000D01*
X149860000Y-67310000D02*
X150680000Y-66490000D01*
%TO.N,Net-(J4-Pin_26)*%
X162560000Y-66040000D02*
X165100000Y-63500000D01*
X157480000Y-66040000D02*
X162560000Y-66040000D01*
%TO.N,Net-(J4-Pin_25)*%
X148719503Y-65349500D02*
X149410003Y-66040000D01*
X149410003Y-66040000D02*
X154940000Y-66040000D01*
%TO.N,Net-(J4-Pin_24)*%
X157480000Y-63500000D02*
X162560000Y-63500000D01*
X162560000Y-63500000D02*
X165100000Y-60960000D01*
%TO.N,Net-(J4-Pin_23)*%
X153815000Y-64625000D02*
X154940000Y-63500000D01*
X147144009Y-64625000D02*
X153815000Y-64625000D01*
X145350248Y-68009751D02*
X146041991Y-67318008D01*
X146041991Y-67318008D02*
X146041991Y-65727018D01*
X146041991Y-65727018D02*
X147144009Y-64625000D01*
%TO.N,Net-(J4-Pin_22)*%
X157480000Y-60960000D02*
X162560000Y-60960000D01*
X162560000Y-60960000D02*
X165100000Y-58420000D01*
%TO.N,Net-(J4-Pin_21)*%
X146027214Y-63201795D02*
X146999009Y-62230000D01*
X153670000Y-62230000D02*
X154940000Y-60960000D01*
X146999009Y-62230000D02*
X153670000Y-62230000D01*
X145316991Y-65447661D02*
X146027214Y-64737438D01*
X146027214Y-64737438D02*
X146027214Y-63201795D01*
%TO.N,Net-(J4-Pin_20)*%
X162560000Y-58420000D02*
X157480000Y-58420000D01*
%TO.N,Net-(J4-Pin_19)*%
X146999009Y-59690000D02*
X153670000Y-59690000D01*
X145349148Y-62930852D02*
X146050000Y-62230000D01*
X146050000Y-62230000D02*
X146050000Y-60639009D01*
X153670000Y-59690000D02*
X154940000Y-58420000D01*
X146050000Y-60639009D02*
X146999009Y-59690000D01*
%TO.N,Net-(J4-Pin_16)*%
X157480000Y-53340000D02*
X162560000Y-53340000D01*
X162560000Y-53340000D02*
X165100000Y-50800000D01*
%TO.N,Net-(J4-Pin_15)*%
X153035000Y-55245000D02*
X154940000Y-53340000D01*
X147320000Y-45720000D02*
X148445000Y-46845000D01*
X149225000Y-55245000D02*
X153035000Y-55245000D01*
X148445000Y-54465000D02*
X149225000Y-55245000D01*
X148445000Y-46845000D02*
X148445000Y-54465000D01*
%TO.N,Net-(J4-Pin_14)*%
X157480000Y-50800000D02*
X162560000Y-50800000D01*
X162560000Y-50800000D02*
X165100000Y-48260000D01*
%TO.N,Net-(J4-Pin_13)*%
X151130000Y-44450000D02*
X152400000Y-44450000D01*
X149949500Y-50165000D02*
X149949500Y-45630500D01*
X152400000Y-44450000D02*
X153670000Y-45720000D01*
X149949500Y-45630500D02*
X151130000Y-44450000D01*
X153670000Y-45720000D02*
X153670000Y-46990000D01*
%TO.N,Net-(J4-Pin_12)*%
X162560000Y-48260000D02*
X165100000Y-45720000D01*
X157480000Y-48260000D02*
X162560000Y-48260000D01*
%TO.N,Net-(J4-Pin_11)*%
X152400000Y-53975000D02*
X153670000Y-52705000D01*
X149225000Y-53340000D02*
X149860000Y-53975000D01*
X153670000Y-49530000D02*
X154940000Y-48260000D01*
X149860000Y-53975000D02*
X152400000Y-53975000D01*
X147320000Y-43180000D02*
X149225000Y-45085000D01*
X149225000Y-45085000D02*
X149225000Y-53340000D01*
X153670000Y-52705000D02*
X153670000Y-49530000D01*
%TO.N,Net-(J4-Pin_10)*%
X162560000Y-45720000D02*
X165100000Y-43180000D01*
X157480000Y-45720000D02*
X162560000Y-45720000D01*
%TO.N,Net-(J4-Pin_9)*%
X152850000Y-43630000D02*
X154940000Y-45720000D01*
X150680000Y-43630000D02*
X152850000Y-43630000D01*
X149860000Y-44450000D02*
X150680000Y-43630000D01*
%TO.N,Net-(J4-Pin_8)*%
X162560000Y-43180000D02*
X165100000Y-40640000D01*
X157480000Y-43180000D02*
X162560000Y-43180000D01*
%TO.N,Net-(J4-Pin_7)*%
X148719503Y-42489500D02*
X149410003Y-43180000D01*
X149410003Y-43180000D02*
X154940000Y-43180000D01*
%TO.N,Net-(J4-Pin_6)*%
X162560000Y-40640000D02*
X165100000Y-38100000D01*
X157480000Y-40640000D02*
X162560000Y-40640000D01*
%TO.N,Net-(J4-Pin_5)*%
X146041991Y-42867018D02*
X147144009Y-41765000D01*
X146041991Y-44458008D02*
X146041991Y-42867018D01*
X153815000Y-41765000D02*
X154940000Y-40640000D01*
X147144009Y-41765000D02*
X153815000Y-41765000D01*
X145350248Y-45149751D02*
X146041991Y-44458008D01*
%TO.N,Net-(J4-Pin_4)*%
X162560000Y-38100000D02*
X165100000Y-35560000D01*
X157480000Y-38100000D02*
X162560000Y-38100000D01*
%TO.N,Net-(J4-Pin_3)*%
X146999009Y-39370000D02*
X153670000Y-39370000D01*
X153670000Y-39370000D02*
X154940000Y-38100000D01*
X145316991Y-42587661D02*
X146027214Y-41877438D01*
X146027214Y-41877438D02*
X146027214Y-40341795D01*
X146027214Y-40341795D02*
X146999009Y-39370000D01*
%TO.N,Net-(J4-Pin_2)*%
X162560000Y-35560000D02*
X157480000Y-35560000D01*
%TO.N,Net-(J4-Pin_1)*%
X146050000Y-39370000D02*
X146050000Y-37779009D01*
X146050000Y-37779009D02*
X146999009Y-36830000D01*
X153670000Y-36830000D02*
X154940000Y-35560000D01*
X146999009Y-36830000D02*
X153670000Y-36830000D01*
X145349148Y-40070852D02*
X146050000Y-39370000D01*
%TD*%
M02*
