%TF.GenerationSoftware,KiCad,Pcbnew,(7.0.0)*%
%TF.CreationDate,2023-03-24T15:25:03-07:00*%
%TF.ProjectId,tiaan_fsr_exp,74696161-6e5f-4667-9372-5f6578702e6b,rev?*%
%TF.SameCoordinates,Original*%
%TF.FileFunction,Soldermask,Top*%
%TF.FilePolarity,Negative*%
%FSLAX46Y46*%
G04 Gerber Fmt 4.6, Leading zero omitted, Abs format (unit mm)*
G04 Created by KiCad (PCBNEW (7.0.0)) date 2023-03-24 15:25:03*
%MOMM*%
%LPD*%
G01*
G04 APERTURE LIST*
G04 Aperture macros list*
%AMRoundRect*
0 Rectangle with rounded corners*
0 $1 Rounding radius*
0 $2 $3 $4 $5 $6 $7 $8 $9 X,Y pos of 4 corners*
0 Add a 4 corners polygon primitive as box body*
4,1,4,$2,$3,$4,$5,$6,$7,$8,$9,$2,$3,0*
0 Add four circle primitives for the rounded corners*
1,1,$1+$1,$2,$3*
1,1,$1+$1,$4,$5*
1,1,$1+$1,$6,$7*
1,1,$1+$1,$8,$9*
0 Add four rect primitives between the rounded corners*
20,1,$1+$1,$2,$3,$4,$5,0*
20,1,$1+$1,$4,$5,$6,$7,0*
20,1,$1+$1,$6,$7,$8,$9,0*
20,1,$1+$1,$8,$9,$2,$3,0*%
G04 Aperture macros list end*
%ADD10R,1.200000X1.200000*%
%ADD11C,1.200000*%
%ADD12R,1.700000X1.700000*%
%ADD13O,1.700000X1.700000*%
%ADD14C,1.600000*%
%ADD15O,1.600000X1.600000*%
%ADD16RoundRect,0.250000X-0.600000X-0.725000X0.600000X-0.725000X0.600000X0.725000X-0.600000X0.725000X0*%
%ADD17O,1.700000X1.950000*%
%ADD18C,4.700000*%
%ADD19RoundRect,0.250000X-0.600000X-0.600000X0.600000X-0.600000X0.600000X0.600000X-0.600000X0.600000X0*%
%ADD20C,1.700000*%
%ADD21R,1.600000X1.600000*%
G04 APERTURE END LIST*
D10*
%TO.C,C4*%
X136619999Y-76199999D03*
D11*
X134620000Y-76200000D03*
%TD*%
D10*
%TO.C,C2*%
X175799999Y-58419999D03*
D11*
X177800000Y-58420000D03*
%TD*%
D12*
%TO.C,J3*%
X160019999Y-86359999D03*
D13*
X162559999Y-86359999D03*
%TD*%
D14*
%TO.C,R1*%
X135890000Y-60960000D03*
D15*
X135889999Y-71119999D03*
%TD*%
D16*
%TO.C,J2*%
X170000000Y-86360000D03*
D17*
X172499999Y-86359999D03*
X174999999Y-86359999D03*
%TD*%
D18*
%TO.C,H1*%
X182500000Y-33500000D03*
%TD*%
%TO.C,H3*%
X133500000Y-91500000D03*
%TD*%
%TO.C,H4*%
X133500000Y-33500000D03*
%TD*%
D19*
%TO.C,J4*%
X154940000Y-35560000D03*
D20*
X157480000Y-35560000D03*
X154940000Y-38100000D03*
X157480000Y-38100000D03*
X154940000Y-40640000D03*
X157480000Y-40640000D03*
X154940000Y-43180000D03*
X157480000Y-43180000D03*
X154940000Y-45720000D03*
X157480000Y-45720000D03*
X154940000Y-48260000D03*
X157480000Y-48260000D03*
X154940000Y-50800000D03*
X157480000Y-50800000D03*
X154940000Y-53340000D03*
X157480000Y-53340000D03*
X154940000Y-55880000D03*
X157480000Y-55880000D03*
X154940000Y-58420000D03*
X157480000Y-58420000D03*
X154940000Y-60960000D03*
X157480000Y-60960000D03*
X154940000Y-63500000D03*
X157480000Y-63500000D03*
X154940000Y-66040000D03*
X157480000Y-66040000D03*
X154940000Y-68580000D03*
X157480000Y-68580000D03*
X154940000Y-71120000D03*
X157480000Y-71120000D03*
X154940000Y-73660000D03*
X157480000Y-73660000D03*
X154940000Y-76200000D03*
X157480000Y-76200000D03*
%TD*%
D21*
%TO.C,MUX1*%
X147319999Y-53339999D03*
D15*
X147319999Y-50799999D03*
X147319999Y-48259999D03*
X147319999Y-45719999D03*
X147319999Y-43179999D03*
X147319999Y-40639999D03*
X147319999Y-38099999D03*
X147319999Y-35559999D03*
X139699999Y-35559999D03*
X139699999Y-38099999D03*
X139699999Y-40639999D03*
X139699999Y-43179999D03*
X139699999Y-45719999D03*
X139699999Y-48259999D03*
X139699999Y-50799999D03*
X139699999Y-53339999D03*
%TD*%
D10*
%TO.C,C3*%
X136619999Y-53339999D03*
D11*
X134620000Y-53340000D03*
%TD*%
D21*
%TO.C,SR2*%
X165099999Y-58419999D03*
D15*
X165099999Y-60959999D03*
X165099999Y-63499999D03*
X165099999Y-66039999D03*
X165099999Y-68579999D03*
X165099999Y-71119999D03*
X165099999Y-73659999D03*
X165099999Y-76199999D03*
X172719999Y-76199999D03*
X172719999Y-73659999D03*
X172719999Y-71119999D03*
X172719999Y-68579999D03*
X172719999Y-66039999D03*
X172719999Y-63499999D03*
X172719999Y-60959999D03*
X172719999Y-58419999D03*
%TD*%
D21*
%TO.C,SR1*%
X165099999Y-35559999D03*
D15*
X165099999Y-38099999D03*
X165099999Y-40639999D03*
X165099999Y-43179999D03*
X165099999Y-45719999D03*
X165099999Y-48259999D03*
X165099999Y-50799999D03*
X165099999Y-53339999D03*
X172719999Y-53339999D03*
X172719999Y-50799999D03*
X172719999Y-48259999D03*
X172719999Y-45719999D03*
X172719999Y-43179999D03*
X172719999Y-40639999D03*
X172719999Y-38099999D03*
X172719999Y-35559999D03*
%TD*%
D21*
%TO.C,MUX2*%
X147319999Y-76199999D03*
D15*
X147319999Y-73659999D03*
X147319999Y-71119999D03*
X147319999Y-68579999D03*
X147319999Y-66039999D03*
X147319999Y-63499999D03*
X147319999Y-60959999D03*
X147319999Y-58419999D03*
X139699999Y-58419999D03*
X139699999Y-60959999D03*
X139699999Y-63499999D03*
X139699999Y-66039999D03*
X139699999Y-68579999D03*
X139699999Y-71119999D03*
X139699999Y-73659999D03*
X139699999Y-76199999D03*
%TD*%
D10*
%TO.C,C1*%
X175799999Y-35559999D03*
D11*
X177800000Y-35560000D03*
%TD*%
D12*
%TO.C,J5*%
X166369999Y-79889999D03*
D13*
X163829999Y-79889999D03*
%TD*%
D16*
%TO.C,J1*%
X140000000Y-86360000D03*
D17*
X142499999Y-86359999D03*
X144999999Y-86359999D03*
X147499999Y-86359999D03*
X149999999Y-86359999D03*
X152499999Y-86359999D03*
%TD*%
D18*
%TO.C,H2*%
X182500000Y-91500000D03*
%TD*%
M02*
