%TF.GenerationSoftware,KiCad,Pcbnew,(7.0.0)*%
%TF.CreationDate,2023-03-24T15:25:03-07:00*%
%TF.ProjectId,tiaan_fsr_exp,74696161-6e5f-4667-9372-5f6578702e6b,rev?*%
%TF.SameCoordinates,Original*%
%TF.FileFunction,Legend,Top*%
%TF.FilePolarity,Positive*%
%FSLAX46Y46*%
G04 Gerber Fmt 4.6, Leading zero omitted, Abs format (unit mm)*
G04 Created by KiCad (PCBNEW (7.0.0)) date 2023-03-24 15:25:03*
%MOMM*%
%LPD*%
G01*
G04 APERTURE LIST*
%ADD10C,0.150000*%
%ADD11C,0.300000*%
%ADD12C,0.120000*%
G04 APERTURE END LIST*
D10*
X152581666Y-83309523D02*
X152581666Y-82833333D01*
X152867380Y-83404761D02*
X151867380Y-83071428D01*
X151867380Y-83071428D02*
X152867380Y-82738095D01*
X159367380Y-84486761D02*
X160367380Y-84153428D01*
X160367380Y-84153428D02*
X159367380Y-83820095D01*
X160525000Y-83158190D02*
X160558333Y-83191523D01*
X160558333Y-83191523D02*
X160591666Y-83291523D01*
X160591666Y-83291523D02*
X160591666Y-83358190D01*
X160591666Y-83358190D02*
X160558333Y-83458190D01*
X160558333Y-83458190D02*
X160491666Y-83524857D01*
X160491666Y-83524857D02*
X160425000Y-83558190D01*
X160425000Y-83558190D02*
X160291666Y-83591523D01*
X160291666Y-83591523D02*
X160191666Y-83591523D01*
X160191666Y-83591523D02*
X160058333Y-83558190D01*
X160058333Y-83558190D02*
X159991666Y-83524857D01*
X159991666Y-83524857D02*
X159925000Y-83458190D01*
X159925000Y-83458190D02*
X159891666Y-83358190D01*
X159891666Y-83358190D02*
X159891666Y-83291523D01*
X159891666Y-83291523D02*
X159925000Y-83191523D01*
X159925000Y-83191523D02*
X159958333Y-83158190D01*
X160525000Y-82458190D02*
X160558333Y-82491523D01*
X160558333Y-82491523D02*
X160591666Y-82591523D01*
X160591666Y-82591523D02*
X160591666Y-82658190D01*
X160591666Y-82658190D02*
X160558333Y-82758190D01*
X160558333Y-82758190D02*
X160491666Y-82824857D01*
X160491666Y-82824857D02*
X160425000Y-82858190D01*
X160425000Y-82858190D02*
X160291666Y-82891523D01*
X160291666Y-82891523D02*
X160191666Y-82891523D01*
X160191666Y-82891523D02*
X160058333Y-82858190D01*
X160058333Y-82858190D02*
X159991666Y-82824857D01*
X159991666Y-82824857D02*
X159925000Y-82758190D01*
X159925000Y-82758190D02*
X159891666Y-82658190D01*
X159891666Y-82658190D02*
X159891666Y-82591523D01*
X159891666Y-82591523D02*
X159925000Y-82491523D01*
X159925000Y-82491523D02*
X159958333Y-82458190D01*
D11*
X180850037Y-83653005D02*
X182064323Y-83804791D01*
X182064323Y-83804791D02*
X182207180Y-83751219D01*
X182207180Y-83751219D02*
X182278608Y-83688719D01*
X182278608Y-83688719D02*
X182350037Y-83554791D01*
X182350037Y-83554791D02*
X182350037Y-83269077D01*
X182350037Y-83269077D02*
X182278608Y-83117291D01*
X182278608Y-83117291D02*
X182207180Y-83036934D01*
X182207180Y-83036934D02*
X182064323Y-82947648D01*
X182064323Y-82947648D02*
X180850037Y-82795862D01*
X181564323Y-81670862D02*
X181635751Y-81465505D01*
X181635751Y-81465505D02*
X181707180Y-81403005D01*
X181707180Y-81403005D02*
X181850037Y-81349433D01*
X181850037Y-81349433D02*
X182064323Y-81376219D01*
X182064323Y-81376219D02*
X182207180Y-81465505D01*
X182207180Y-81465505D02*
X182278608Y-81545862D01*
X182278608Y-81545862D02*
X182350037Y-81697648D01*
X182350037Y-81697648D02*
X182350037Y-82269076D01*
X182350037Y-82269076D02*
X180850037Y-82081576D01*
X180850037Y-82081576D02*
X180850037Y-81581576D01*
X180850037Y-81581576D02*
X180921466Y-81447648D01*
X180921466Y-81447648D02*
X180992894Y-81385148D01*
X180992894Y-81385148D02*
X181135751Y-81331576D01*
X181135751Y-81331576D02*
X181278608Y-81349433D01*
X181278608Y-81349433D02*
X181421466Y-81438719D01*
X181421466Y-81438719D02*
X181492894Y-81519076D01*
X181492894Y-81519076D02*
X181564323Y-81670862D01*
X181564323Y-81670862D02*
X181564323Y-82170862D01*
X182207180Y-79894076D02*
X182278608Y-79974433D01*
X182278608Y-79974433D02*
X182350037Y-80197648D01*
X182350037Y-80197648D02*
X182350037Y-80340505D01*
X182350037Y-80340505D02*
X182278608Y-80545862D01*
X182278608Y-80545862D02*
X182135751Y-80670862D01*
X182135751Y-80670862D02*
X181992894Y-80724433D01*
X181992894Y-80724433D02*
X181707180Y-80760148D01*
X181707180Y-80760148D02*
X181492894Y-80733362D01*
X181492894Y-80733362D02*
X181207180Y-80626219D01*
X181207180Y-80626219D02*
X181064323Y-80536933D01*
X181064323Y-80536933D02*
X180921466Y-80376219D01*
X180921466Y-80376219D02*
X180850037Y-80153005D01*
X180850037Y-80153005D02*
X180850037Y-80010148D01*
X180850037Y-80010148D02*
X180921466Y-79804790D01*
X180921466Y-79804790D02*
X180992894Y-79742290D01*
X181564323Y-77770862D02*
X181635751Y-77565505D01*
X181635751Y-77565505D02*
X181707180Y-77503005D01*
X181707180Y-77503005D02*
X181850037Y-77449433D01*
X181850037Y-77449433D02*
X182064323Y-77476219D01*
X182064323Y-77476219D02*
X182207180Y-77565505D01*
X182207180Y-77565505D02*
X182278608Y-77645862D01*
X182278608Y-77645862D02*
X182350037Y-77797648D01*
X182350037Y-77797648D02*
X182350037Y-78369076D01*
X182350037Y-78369076D02*
X180850037Y-78181576D01*
X180850037Y-78181576D02*
X180850037Y-77681576D01*
X180850037Y-77681576D02*
X180921466Y-77547648D01*
X180921466Y-77547648D02*
X180992894Y-77485148D01*
X180992894Y-77485148D02*
X181135751Y-77431576D01*
X181135751Y-77431576D02*
X181278608Y-77449433D01*
X181278608Y-77449433D02*
X181421466Y-77538719D01*
X181421466Y-77538719D02*
X181492894Y-77619076D01*
X181492894Y-77619076D02*
X181564323Y-77770862D01*
X181564323Y-77770862D02*
X181564323Y-78270862D01*
X182350037Y-76869076D02*
X180850037Y-76681576D01*
X180850037Y-75681576D02*
X180850037Y-75395862D01*
X180850037Y-75395862D02*
X180921466Y-75261933D01*
X180921466Y-75261933D02*
X181064323Y-75136933D01*
X181064323Y-75136933D02*
X181350037Y-75101219D01*
X181350037Y-75101219D02*
X181850037Y-75163719D01*
X181850037Y-75163719D02*
X182135751Y-75270862D01*
X182135751Y-75270862D02*
X182278608Y-75431576D01*
X182278608Y-75431576D02*
X182350037Y-75583362D01*
X182350037Y-75583362D02*
X182350037Y-75869076D01*
X182350037Y-75869076D02*
X182278608Y-76003004D01*
X182278608Y-76003004D02*
X182135751Y-76128004D01*
X182135751Y-76128004D02*
X181850037Y-76163719D01*
X181850037Y-76163719D02*
X181350037Y-76101219D01*
X181350037Y-76101219D02*
X181064323Y-75994076D01*
X181064323Y-75994076D02*
X180921466Y-75833362D01*
X180921466Y-75833362D02*
X180850037Y-75681576D01*
X182350037Y-74583361D02*
X180850037Y-74395861D01*
X180850037Y-74395861D02*
X182350037Y-73726218D01*
X182350037Y-73726218D02*
X180850037Y-73538718D01*
X182350037Y-73011932D02*
X180850037Y-72824432D01*
X182207180Y-71422646D02*
X182278608Y-71503003D01*
X182278608Y-71503003D02*
X182350037Y-71726218D01*
X182350037Y-71726218D02*
X182350037Y-71869075D01*
X182350037Y-71869075D02*
X182278608Y-72074432D01*
X182278608Y-72074432D02*
X182135751Y-72199432D01*
X182135751Y-72199432D02*
X181992894Y-72253003D01*
X181992894Y-72253003D02*
X181707180Y-72288718D01*
X181707180Y-72288718D02*
X181492894Y-72261932D01*
X181492894Y-72261932D02*
X181207180Y-72154789D01*
X181207180Y-72154789D02*
X181064323Y-72065503D01*
X181064323Y-72065503D02*
X180921466Y-71904789D01*
X180921466Y-71904789D02*
X180850037Y-71681575D01*
X180850037Y-71681575D02*
X180850037Y-71538718D01*
X180850037Y-71538718D02*
X180921466Y-71333360D01*
X180921466Y-71333360D02*
X180992894Y-71270860D01*
X182278608Y-70860146D02*
X182350037Y-70654789D01*
X182350037Y-70654789D02*
X182350037Y-70297646D01*
X182350037Y-70297646D02*
X182278608Y-70145860D01*
X182278608Y-70145860D02*
X182207180Y-70065503D01*
X182207180Y-70065503D02*
X182064323Y-69976218D01*
X182064323Y-69976218D02*
X181921466Y-69958360D01*
X181921466Y-69958360D02*
X181778608Y-70011932D01*
X181778608Y-70011932D02*
X181707180Y-70074432D01*
X181707180Y-70074432D02*
X181635751Y-70208360D01*
X181635751Y-70208360D02*
X181564323Y-70485146D01*
X181564323Y-70485146D02*
X181492894Y-70619075D01*
X181492894Y-70619075D02*
X181421466Y-70681575D01*
X181421466Y-70681575D02*
X181278608Y-70735146D01*
X181278608Y-70735146D02*
X181135751Y-70717289D01*
X181135751Y-70717289D02*
X180992894Y-70628003D01*
X180992894Y-70628003D02*
X180921466Y-70547646D01*
X180921466Y-70547646D02*
X180850037Y-70395860D01*
X180850037Y-70395860D02*
X180850037Y-70038718D01*
X180850037Y-70038718D02*
X180921466Y-69833360D01*
D10*
X142819761Y-83309523D02*
X142867380Y-83166666D01*
X142867380Y-83166666D02*
X142867380Y-82928571D01*
X142867380Y-82928571D02*
X142819761Y-82833333D01*
X142819761Y-82833333D02*
X142772142Y-82785714D01*
X142772142Y-82785714D02*
X142676904Y-82738095D01*
X142676904Y-82738095D02*
X142581666Y-82738095D01*
X142581666Y-82738095D02*
X142486428Y-82785714D01*
X142486428Y-82785714D02*
X142438809Y-82833333D01*
X142438809Y-82833333D02*
X142391190Y-82928571D01*
X142391190Y-82928571D02*
X142343571Y-83119047D01*
X142343571Y-83119047D02*
X142295952Y-83214285D01*
X142295952Y-83214285D02*
X142248333Y-83261904D01*
X142248333Y-83261904D02*
X142153095Y-83309523D01*
X142153095Y-83309523D02*
X142057857Y-83309523D01*
X142057857Y-83309523D02*
X141962619Y-83261904D01*
X141962619Y-83261904D02*
X141915000Y-83214285D01*
X141915000Y-83214285D02*
X141867380Y-83119047D01*
X141867380Y-83119047D02*
X141867380Y-82880952D01*
X141867380Y-82880952D02*
X141915000Y-82738095D01*
X142867380Y-81785714D02*
X142867380Y-82357142D01*
X142867380Y-82071428D02*
X141867380Y-82071428D01*
X141867380Y-82071428D02*
X142010238Y-82166666D01*
X142010238Y-82166666D02*
X142105476Y-82261904D01*
X142105476Y-82261904D02*
X142153095Y-82357142D01*
X183284466Y-83444672D02*
X183236846Y-83539910D01*
X183236846Y-83539910D02*
X183236846Y-83682767D01*
X183236846Y-83682767D02*
X183284466Y-83825624D01*
X183284466Y-83825624D02*
X183379704Y-83920862D01*
X183379704Y-83920862D02*
X183474942Y-83968481D01*
X183474942Y-83968481D02*
X183665418Y-84016100D01*
X183665418Y-84016100D02*
X183808275Y-84016100D01*
X183808275Y-84016100D02*
X183998751Y-83968481D01*
X183998751Y-83968481D02*
X184093989Y-83920862D01*
X184093989Y-83920862D02*
X184189227Y-83825624D01*
X184189227Y-83825624D02*
X184236846Y-83682767D01*
X184236846Y-83682767D02*
X184236846Y-83587529D01*
X184236846Y-83587529D02*
X184189227Y-83444672D01*
X184189227Y-83444672D02*
X184141608Y-83397053D01*
X184141608Y-83397053D02*
X183808275Y-83397053D01*
X183808275Y-83397053D02*
X183808275Y-83587529D01*
X184236846Y-82397053D02*
X183760656Y-82730386D01*
X184236846Y-82968481D02*
X183236846Y-82968481D01*
X183236846Y-82968481D02*
X183236846Y-82587529D01*
X183236846Y-82587529D02*
X183284466Y-82492291D01*
X183284466Y-82492291D02*
X183332085Y-82444672D01*
X183332085Y-82444672D02*
X183427323Y-82397053D01*
X183427323Y-82397053D02*
X183570180Y-82397053D01*
X183570180Y-82397053D02*
X183665418Y-82444672D01*
X183665418Y-82444672D02*
X183713037Y-82492291D01*
X183713037Y-82492291D02*
X183760656Y-82587529D01*
X183760656Y-82587529D02*
X183760656Y-82968481D01*
X183951132Y-82016100D02*
X183951132Y-81539910D01*
X184236846Y-82111338D02*
X183236846Y-81778005D01*
X183236846Y-81778005D02*
X184236846Y-81444672D01*
X184189227Y-81158957D02*
X184236846Y-81016100D01*
X184236846Y-81016100D02*
X184236846Y-80778005D01*
X184236846Y-80778005D02*
X184189227Y-80682767D01*
X184189227Y-80682767D02*
X184141608Y-80635148D01*
X184141608Y-80635148D02*
X184046370Y-80587529D01*
X184046370Y-80587529D02*
X183951132Y-80587529D01*
X183951132Y-80587529D02*
X183855894Y-80635148D01*
X183855894Y-80635148D02*
X183808275Y-80682767D01*
X183808275Y-80682767D02*
X183760656Y-80778005D01*
X183760656Y-80778005D02*
X183713037Y-80968481D01*
X183713037Y-80968481D02*
X183665418Y-81063719D01*
X183665418Y-81063719D02*
X183617799Y-81111338D01*
X183617799Y-81111338D02*
X183522561Y-81158957D01*
X183522561Y-81158957D02*
X183427323Y-81158957D01*
X183427323Y-81158957D02*
X183332085Y-81111338D01*
X183332085Y-81111338D02*
X183284466Y-81063719D01*
X183284466Y-81063719D02*
X183236846Y-80968481D01*
X183236846Y-80968481D02*
X183236846Y-80730386D01*
X183236846Y-80730386D02*
X183284466Y-80587529D01*
X184236846Y-80158957D02*
X183236846Y-80158957D01*
X183236846Y-80158957D02*
X183236846Y-79778005D01*
X183236846Y-79778005D02*
X183284466Y-79682767D01*
X183284466Y-79682767D02*
X183332085Y-79635148D01*
X183332085Y-79635148D02*
X183427323Y-79587529D01*
X183427323Y-79587529D02*
X183570180Y-79587529D01*
X183570180Y-79587529D02*
X183665418Y-79635148D01*
X183665418Y-79635148D02*
X183713037Y-79682767D01*
X183713037Y-79682767D02*
X183760656Y-79778005D01*
X183760656Y-79778005D02*
X183760656Y-80158957D01*
X183332085Y-78606576D02*
X183284466Y-78558957D01*
X183284466Y-78558957D02*
X183236846Y-78463719D01*
X183236846Y-78463719D02*
X183236846Y-78225624D01*
X183236846Y-78225624D02*
X183284466Y-78130386D01*
X183284466Y-78130386D02*
X183332085Y-78082767D01*
X183332085Y-78082767D02*
X183427323Y-78035148D01*
X183427323Y-78035148D02*
X183522561Y-78035148D01*
X183522561Y-78035148D02*
X183665418Y-78082767D01*
X183665418Y-78082767D02*
X184236846Y-78654195D01*
X184236846Y-78654195D02*
X184236846Y-78035148D01*
X184141608Y-77606576D02*
X184189227Y-77558957D01*
X184189227Y-77558957D02*
X184236846Y-77606576D01*
X184236846Y-77606576D02*
X184189227Y-77654195D01*
X184189227Y-77654195D02*
X184141608Y-77606576D01*
X184141608Y-77606576D02*
X184236846Y-77606576D01*
X183236846Y-76939910D02*
X183236846Y-76844672D01*
X183236846Y-76844672D02*
X183284466Y-76749434D01*
X183284466Y-76749434D02*
X183332085Y-76701815D01*
X183332085Y-76701815D02*
X183427323Y-76654196D01*
X183427323Y-76654196D02*
X183617799Y-76606577D01*
X183617799Y-76606577D02*
X183855894Y-76606577D01*
X183855894Y-76606577D02*
X184046370Y-76654196D01*
X184046370Y-76654196D02*
X184141608Y-76701815D01*
X184141608Y-76701815D02*
X184189227Y-76749434D01*
X184189227Y-76749434D02*
X184236846Y-76844672D01*
X184236846Y-76844672D02*
X184236846Y-76939910D01*
X184236846Y-76939910D02*
X184189227Y-77035148D01*
X184189227Y-77035148D02*
X184141608Y-77082767D01*
X184141608Y-77082767D02*
X184046370Y-77130386D01*
X184046370Y-77130386D02*
X183855894Y-77178005D01*
X183855894Y-77178005D02*
X183617799Y-77178005D01*
X183617799Y-77178005D02*
X183427323Y-77130386D01*
X183427323Y-77130386D02*
X183332085Y-77082767D01*
X183332085Y-77082767D02*
X183284466Y-77035148D01*
X183284466Y-77035148D02*
X183236846Y-76939910D01*
X184570180Y-75339910D02*
X183141608Y-75339910D01*
X183713037Y-73692291D02*
X183713037Y-74025624D01*
X184236846Y-74025624D02*
X183236846Y-74025624D01*
X183236846Y-74025624D02*
X183236846Y-73549434D01*
X184189227Y-73216100D02*
X184236846Y-73073243D01*
X184236846Y-73073243D02*
X184236846Y-72835148D01*
X184236846Y-72835148D02*
X184189227Y-72739910D01*
X184189227Y-72739910D02*
X184141608Y-72692291D01*
X184141608Y-72692291D02*
X184046370Y-72644672D01*
X184046370Y-72644672D02*
X183951132Y-72644672D01*
X183951132Y-72644672D02*
X183855894Y-72692291D01*
X183855894Y-72692291D02*
X183808275Y-72739910D01*
X183808275Y-72739910D02*
X183760656Y-72835148D01*
X183760656Y-72835148D02*
X183713037Y-73025624D01*
X183713037Y-73025624D02*
X183665418Y-73120862D01*
X183665418Y-73120862D02*
X183617799Y-73168481D01*
X183617799Y-73168481D02*
X183522561Y-73216100D01*
X183522561Y-73216100D02*
X183427323Y-73216100D01*
X183427323Y-73216100D02*
X183332085Y-73168481D01*
X183332085Y-73168481D02*
X183284466Y-73120862D01*
X183284466Y-73120862D02*
X183236846Y-73025624D01*
X183236846Y-73025624D02*
X183236846Y-72787529D01*
X183236846Y-72787529D02*
X183284466Y-72644672D01*
X184236846Y-71644672D02*
X183760656Y-71978005D01*
X184236846Y-72216100D02*
X183236846Y-72216100D01*
X183236846Y-72216100D02*
X183236846Y-71835148D01*
X183236846Y-71835148D02*
X183284466Y-71739910D01*
X183284466Y-71739910D02*
X183332085Y-71692291D01*
X183332085Y-71692291D02*
X183427323Y-71644672D01*
X183427323Y-71644672D02*
X183570180Y-71644672D01*
X183570180Y-71644672D02*
X183665418Y-71692291D01*
X183665418Y-71692291D02*
X183713037Y-71739910D01*
X183713037Y-71739910D02*
X183760656Y-71835148D01*
X183760656Y-71835148D02*
X183760656Y-72216100D01*
X184236846Y-70616100D02*
X183236846Y-70616100D01*
X183236846Y-70616100D02*
X183951132Y-70282767D01*
X183951132Y-70282767D02*
X183236846Y-69949434D01*
X183236846Y-69949434D02*
X184236846Y-69949434D01*
X184236846Y-69330386D02*
X184189227Y-69425624D01*
X184189227Y-69425624D02*
X184141608Y-69473243D01*
X184141608Y-69473243D02*
X184046370Y-69520862D01*
X184046370Y-69520862D02*
X183760656Y-69520862D01*
X183760656Y-69520862D02*
X183665418Y-69473243D01*
X183665418Y-69473243D02*
X183617799Y-69425624D01*
X183617799Y-69425624D02*
X183570180Y-69330386D01*
X183570180Y-69330386D02*
X183570180Y-69187529D01*
X183570180Y-69187529D02*
X183617799Y-69092291D01*
X183617799Y-69092291D02*
X183665418Y-69044672D01*
X183665418Y-69044672D02*
X183760656Y-68997053D01*
X183760656Y-68997053D02*
X184046370Y-68997053D01*
X184046370Y-68997053D02*
X184141608Y-69044672D01*
X184141608Y-69044672D02*
X184189227Y-69092291D01*
X184189227Y-69092291D02*
X184236846Y-69187529D01*
X184236846Y-69187529D02*
X184236846Y-69330386D01*
X184236846Y-68139910D02*
X183236846Y-68139910D01*
X184189227Y-68139910D02*
X184236846Y-68235148D01*
X184236846Y-68235148D02*
X184236846Y-68425624D01*
X184236846Y-68425624D02*
X184189227Y-68520862D01*
X184189227Y-68520862D02*
X184141608Y-68568481D01*
X184141608Y-68568481D02*
X184046370Y-68616100D01*
X184046370Y-68616100D02*
X183760656Y-68616100D01*
X183760656Y-68616100D02*
X183665418Y-68568481D01*
X183665418Y-68568481D02*
X183617799Y-68520862D01*
X183617799Y-68520862D02*
X183570180Y-68425624D01*
X183570180Y-68425624D02*
X183570180Y-68235148D01*
X183570180Y-68235148D02*
X183617799Y-68139910D01*
X183570180Y-67235148D02*
X184236846Y-67235148D01*
X183570180Y-67663719D02*
X184093989Y-67663719D01*
X184093989Y-67663719D02*
X184189227Y-67616100D01*
X184189227Y-67616100D02*
X184236846Y-67520862D01*
X184236846Y-67520862D02*
X184236846Y-67378005D01*
X184236846Y-67378005D02*
X184189227Y-67282767D01*
X184189227Y-67282767D02*
X184141608Y-67235148D01*
X184236846Y-66616100D02*
X184189227Y-66711338D01*
X184189227Y-66711338D02*
X184093989Y-66758957D01*
X184093989Y-66758957D02*
X183236846Y-66758957D01*
X184189227Y-65854195D02*
X184236846Y-65949433D01*
X184236846Y-65949433D02*
X184236846Y-66139909D01*
X184236846Y-66139909D02*
X184189227Y-66235147D01*
X184189227Y-66235147D02*
X184093989Y-66282766D01*
X184093989Y-66282766D02*
X183713037Y-66282766D01*
X183713037Y-66282766D02*
X183617799Y-66235147D01*
X183617799Y-66235147D02*
X183570180Y-66139909D01*
X183570180Y-66139909D02*
X183570180Y-65949433D01*
X183570180Y-65949433D02*
X183617799Y-65854195D01*
X183617799Y-65854195D02*
X183713037Y-65806576D01*
X183713037Y-65806576D02*
X183808275Y-65806576D01*
X183808275Y-65806576D02*
X183903513Y-66282766D01*
X183236846Y-64920861D02*
X184236846Y-64587528D01*
X184236846Y-64587528D02*
X183236846Y-64254195D01*
X184236846Y-63397052D02*
X184236846Y-63968480D01*
X184236846Y-63682766D02*
X183236846Y-63682766D01*
X183236846Y-63682766D02*
X183379704Y-63778004D01*
X183379704Y-63778004D02*
X183474942Y-63873242D01*
X183474942Y-63873242D02*
X183522561Y-63968480D01*
X184570180Y-62130385D02*
X183141608Y-62130385D01*
X183236846Y-60625623D02*
X183236846Y-60530385D01*
X183236846Y-60530385D02*
X183284466Y-60435147D01*
X183284466Y-60435147D02*
X183332085Y-60387528D01*
X183332085Y-60387528D02*
X183427323Y-60339909D01*
X183427323Y-60339909D02*
X183617799Y-60292290D01*
X183617799Y-60292290D02*
X183855894Y-60292290D01*
X183855894Y-60292290D02*
X184046370Y-60339909D01*
X184046370Y-60339909D02*
X184141608Y-60387528D01*
X184141608Y-60387528D02*
X184189227Y-60435147D01*
X184189227Y-60435147D02*
X184236846Y-60530385D01*
X184236846Y-60530385D02*
X184236846Y-60625623D01*
X184236846Y-60625623D02*
X184189227Y-60720861D01*
X184189227Y-60720861D02*
X184141608Y-60768480D01*
X184141608Y-60768480D02*
X184046370Y-60816099D01*
X184046370Y-60816099D02*
X183855894Y-60863718D01*
X183855894Y-60863718D02*
X183617799Y-60863718D01*
X183617799Y-60863718D02*
X183427323Y-60816099D01*
X183427323Y-60816099D02*
X183332085Y-60768480D01*
X183332085Y-60768480D02*
X183284466Y-60720861D01*
X183284466Y-60720861D02*
X183236846Y-60625623D01*
X183236846Y-59958956D02*
X183236846Y-59339909D01*
X183236846Y-59339909D02*
X183617799Y-59673242D01*
X183617799Y-59673242D02*
X183617799Y-59530385D01*
X183617799Y-59530385D02*
X183665418Y-59435147D01*
X183665418Y-59435147D02*
X183713037Y-59387528D01*
X183713037Y-59387528D02*
X183808275Y-59339909D01*
X183808275Y-59339909D02*
X184046370Y-59339909D01*
X184046370Y-59339909D02*
X184141608Y-59387528D01*
X184141608Y-59387528D02*
X184189227Y-59435147D01*
X184189227Y-59435147D02*
X184236846Y-59530385D01*
X184236846Y-59530385D02*
X184236846Y-59816099D01*
X184236846Y-59816099D02*
X184189227Y-59911337D01*
X184189227Y-59911337D02*
X184141608Y-59958956D01*
X183189227Y-58197052D02*
X184474942Y-59054194D01*
X183332085Y-57911337D02*
X183284466Y-57863718D01*
X183284466Y-57863718D02*
X183236846Y-57768480D01*
X183236846Y-57768480D02*
X183236846Y-57530385D01*
X183236846Y-57530385D02*
X183284466Y-57435147D01*
X183284466Y-57435147D02*
X183332085Y-57387528D01*
X183332085Y-57387528D02*
X183427323Y-57339909D01*
X183427323Y-57339909D02*
X183522561Y-57339909D01*
X183522561Y-57339909D02*
X183665418Y-57387528D01*
X183665418Y-57387528D02*
X184236846Y-57958956D01*
X184236846Y-57958956D02*
X184236846Y-57339909D01*
X183236846Y-56720861D02*
X183236846Y-56625623D01*
X183236846Y-56625623D02*
X183284466Y-56530385D01*
X183284466Y-56530385D02*
X183332085Y-56482766D01*
X183332085Y-56482766D02*
X183427323Y-56435147D01*
X183427323Y-56435147D02*
X183617799Y-56387528D01*
X183617799Y-56387528D02*
X183855894Y-56387528D01*
X183855894Y-56387528D02*
X184046370Y-56435147D01*
X184046370Y-56435147D02*
X184141608Y-56482766D01*
X184141608Y-56482766D02*
X184189227Y-56530385D01*
X184189227Y-56530385D02*
X184236846Y-56625623D01*
X184236846Y-56625623D02*
X184236846Y-56720861D01*
X184236846Y-56720861D02*
X184189227Y-56816099D01*
X184189227Y-56816099D02*
X184141608Y-56863718D01*
X184141608Y-56863718D02*
X184046370Y-56911337D01*
X184046370Y-56911337D02*
X183855894Y-56958956D01*
X183855894Y-56958956D02*
X183617799Y-56958956D01*
X183617799Y-56958956D02*
X183427323Y-56911337D01*
X183427323Y-56911337D02*
X183332085Y-56863718D01*
X183332085Y-56863718D02*
X183284466Y-56816099D01*
X183284466Y-56816099D02*
X183236846Y-56720861D01*
X183332085Y-56006575D02*
X183284466Y-55958956D01*
X183284466Y-55958956D02*
X183236846Y-55863718D01*
X183236846Y-55863718D02*
X183236846Y-55625623D01*
X183236846Y-55625623D02*
X183284466Y-55530385D01*
X183284466Y-55530385D02*
X183332085Y-55482766D01*
X183332085Y-55482766D02*
X183427323Y-55435147D01*
X183427323Y-55435147D02*
X183522561Y-55435147D01*
X183522561Y-55435147D02*
X183665418Y-55482766D01*
X183665418Y-55482766D02*
X184236846Y-56054194D01*
X184236846Y-56054194D02*
X184236846Y-55435147D01*
X183236846Y-55101813D02*
X183236846Y-54482766D01*
X183236846Y-54482766D02*
X183617799Y-54816099D01*
X183617799Y-54816099D02*
X183617799Y-54673242D01*
X183617799Y-54673242D02*
X183665418Y-54578004D01*
X183665418Y-54578004D02*
X183713037Y-54530385D01*
X183713037Y-54530385D02*
X183808275Y-54482766D01*
X183808275Y-54482766D02*
X184046370Y-54482766D01*
X184046370Y-54482766D02*
X184141608Y-54530385D01*
X184141608Y-54530385D02*
X184189227Y-54578004D01*
X184189227Y-54578004D02*
X184236846Y-54673242D01*
X184236846Y-54673242D02*
X184236846Y-54958956D01*
X184236846Y-54958956D02*
X184189227Y-55054194D01*
X184189227Y-55054194D02*
X184141608Y-55101813D01*
X172867380Y-82690476D02*
X172391190Y-83023809D01*
X172867380Y-83261904D02*
X171867380Y-83261904D01*
X171867380Y-83261904D02*
X171867380Y-82880952D01*
X171867380Y-82880952D02*
X171915000Y-82785714D01*
X171915000Y-82785714D02*
X171962619Y-82738095D01*
X171962619Y-82738095D02*
X172057857Y-82690476D01*
X172057857Y-82690476D02*
X172200714Y-82690476D01*
X172200714Y-82690476D02*
X172295952Y-82738095D01*
X172295952Y-82738095D02*
X172343571Y-82785714D01*
X172343571Y-82785714D02*
X172391190Y-82880952D01*
X172391190Y-82880952D02*
X172391190Y-83261904D01*
X172772142Y-81690476D02*
X172819761Y-81738095D01*
X172819761Y-81738095D02*
X172867380Y-81880952D01*
X172867380Y-81880952D02*
X172867380Y-81976190D01*
X172867380Y-81976190D02*
X172819761Y-82119047D01*
X172819761Y-82119047D02*
X172724523Y-82214285D01*
X172724523Y-82214285D02*
X172629285Y-82261904D01*
X172629285Y-82261904D02*
X172438809Y-82309523D01*
X172438809Y-82309523D02*
X172295952Y-82309523D01*
X172295952Y-82309523D02*
X172105476Y-82261904D01*
X172105476Y-82261904D02*
X172010238Y-82214285D01*
X172010238Y-82214285D02*
X171915000Y-82119047D01*
X171915000Y-82119047D02*
X171867380Y-81976190D01*
X171867380Y-81976190D02*
X171867380Y-81880952D01*
X171867380Y-81880952D02*
X171915000Y-81738095D01*
X171915000Y-81738095D02*
X171962619Y-81690476D01*
X172867380Y-80785714D02*
X172867380Y-81261904D01*
X172867380Y-81261904D02*
X171867380Y-81261904D01*
X172867380Y-80452380D02*
X171867380Y-80452380D01*
X172867380Y-79880952D02*
X172295952Y-80309523D01*
X171867380Y-79880952D02*
X172438809Y-80452380D01*
X140319761Y-83309523D02*
X140367380Y-83166666D01*
X140367380Y-83166666D02*
X140367380Y-82928571D01*
X140367380Y-82928571D02*
X140319761Y-82833333D01*
X140319761Y-82833333D02*
X140272142Y-82785714D01*
X140272142Y-82785714D02*
X140176904Y-82738095D01*
X140176904Y-82738095D02*
X140081666Y-82738095D01*
X140081666Y-82738095D02*
X139986428Y-82785714D01*
X139986428Y-82785714D02*
X139938809Y-82833333D01*
X139938809Y-82833333D02*
X139891190Y-82928571D01*
X139891190Y-82928571D02*
X139843571Y-83119047D01*
X139843571Y-83119047D02*
X139795952Y-83214285D01*
X139795952Y-83214285D02*
X139748333Y-83261904D01*
X139748333Y-83261904D02*
X139653095Y-83309523D01*
X139653095Y-83309523D02*
X139557857Y-83309523D01*
X139557857Y-83309523D02*
X139462619Y-83261904D01*
X139462619Y-83261904D02*
X139415000Y-83214285D01*
X139415000Y-83214285D02*
X139367380Y-83119047D01*
X139367380Y-83119047D02*
X139367380Y-82880952D01*
X139367380Y-82880952D02*
X139415000Y-82738095D01*
X139367380Y-82119047D02*
X139367380Y-82023809D01*
X139367380Y-82023809D02*
X139415000Y-81928571D01*
X139415000Y-81928571D02*
X139462619Y-81880952D01*
X139462619Y-81880952D02*
X139557857Y-81833333D01*
X139557857Y-81833333D02*
X139748333Y-81785714D01*
X139748333Y-81785714D02*
X139986428Y-81785714D01*
X139986428Y-81785714D02*
X140176904Y-81833333D01*
X140176904Y-81833333D02*
X140272142Y-81880952D01*
X140272142Y-81880952D02*
X140319761Y-81928571D01*
X140319761Y-81928571D02*
X140367380Y-82023809D01*
X140367380Y-82023809D02*
X140367380Y-82119047D01*
X140367380Y-82119047D02*
X140319761Y-82214285D01*
X140319761Y-82214285D02*
X140272142Y-82261904D01*
X140272142Y-82261904D02*
X140176904Y-82309523D01*
X140176904Y-82309523D02*
X139986428Y-82357142D01*
X139986428Y-82357142D02*
X139748333Y-82357142D01*
X139748333Y-82357142D02*
X139557857Y-82309523D01*
X139557857Y-82309523D02*
X139462619Y-82261904D01*
X139462619Y-82261904D02*
X139415000Y-82214285D01*
X139415000Y-82214285D02*
X139367380Y-82119047D01*
X170319761Y-83309523D02*
X170367380Y-83166666D01*
X170367380Y-83166666D02*
X170367380Y-82928571D01*
X170367380Y-82928571D02*
X170319761Y-82833333D01*
X170319761Y-82833333D02*
X170272142Y-82785714D01*
X170272142Y-82785714D02*
X170176904Y-82738095D01*
X170176904Y-82738095D02*
X170081666Y-82738095D01*
X170081666Y-82738095D02*
X169986428Y-82785714D01*
X169986428Y-82785714D02*
X169938809Y-82833333D01*
X169938809Y-82833333D02*
X169891190Y-82928571D01*
X169891190Y-82928571D02*
X169843571Y-83119047D01*
X169843571Y-83119047D02*
X169795952Y-83214285D01*
X169795952Y-83214285D02*
X169748333Y-83261904D01*
X169748333Y-83261904D02*
X169653095Y-83309523D01*
X169653095Y-83309523D02*
X169557857Y-83309523D01*
X169557857Y-83309523D02*
X169462619Y-83261904D01*
X169462619Y-83261904D02*
X169415000Y-83214285D01*
X169415000Y-83214285D02*
X169367380Y-83119047D01*
X169367380Y-83119047D02*
X169367380Y-82880952D01*
X169367380Y-82880952D02*
X169415000Y-82738095D01*
X169843571Y-82309523D02*
X169843571Y-81976190D01*
X170367380Y-81833333D02*
X170367380Y-82309523D01*
X170367380Y-82309523D02*
X169367380Y-82309523D01*
X169367380Y-82309523D02*
X169367380Y-81833333D01*
X170367380Y-80833333D02*
X169891190Y-81166666D01*
X170367380Y-81404761D02*
X169367380Y-81404761D01*
X169367380Y-81404761D02*
X169367380Y-81023809D01*
X169367380Y-81023809D02*
X169415000Y-80928571D01*
X169415000Y-80928571D02*
X169462619Y-80880952D01*
X169462619Y-80880952D02*
X169557857Y-80833333D01*
X169557857Y-80833333D02*
X169700714Y-80833333D01*
X169700714Y-80833333D02*
X169795952Y-80880952D01*
X169795952Y-80880952D02*
X169843571Y-80928571D01*
X169843571Y-80928571D02*
X169891190Y-81023809D01*
X169891190Y-81023809D02*
X169891190Y-81404761D01*
X145319761Y-83309523D02*
X145367380Y-83166666D01*
X145367380Y-83166666D02*
X145367380Y-82928571D01*
X145367380Y-82928571D02*
X145319761Y-82833333D01*
X145319761Y-82833333D02*
X145272142Y-82785714D01*
X145272142Y-82785714D02*
X145176904Y-82738095D01*
X145176904Y-82738095D02*
X145081666Y-82738095D01*
X145081666Y-82738095D02*
X144986428Y-82785714D01*
X144986428Y-82785714D02*
X144938809Y-82833333D01*
X144938809Y-82833333D02*
X144891190Y-82928571D01*
X144891190Y-82928571D02*
X144843571Y-83119047D01*
X144843571Y-83119047D02*
X144795952Y-83214285D01*
X144795952Y-83214285D02*
X144748333Y-83261904D01*
X144748333Y-83261904D02*
X144653095Y-83309523D01*
X144653095Y-83309523D02*
X144557857Y-83309523D01*
X144557857Y-83309523D02*
X144462619Y-83261904D01*
X144462619Y-83261904D02*
X144415000Y-83214285D01*
X144415000Y-83214285D02*
X144367380Y-83119047D01*
X144367380Y-83119047D02*
X144367380Y-82880952D01*
X144367380Y-82880952D02*
X144415000Y-82738095D01*
X144462619Y-82357142D02*
X144415000Y-82309523D01*
X144415000Y-82309523D02*
X144367380Y-82214285D01*
X144367380Y-82214285D02*
X144367380Y-81976190D01*
X144367380Y-81976190D02*
X144415000Y-81880952D01*
X144415000Y-81880952D02*
X144462619Y-81833333D01*
X144462619Y-81833333D02*
X144557857Y-81785714D01*
X144557857Y-81785714D02*
X144653095Y-81785714D01*
X144653095Y-81785714D02*
X144795952Y-81833333D01*
X144795952Y-81833333D02*
X145367380Y-82404761D01*
X145367380Y-82404761D02*
X145367380Y-81785714D01*
X153352476Y-32405619D02*
X153400095Y-32358000D01*
X153400095Y-32358000D02*
X153495333Y-32310380D01*
X153495333Y-32310380D02*
X153733428Y-32310380D01*
X153733428Y-32310380D02*
X153828666Y-32358000D01*
X153828666Y-32358000D02*
X153876285Y-32405619D01*
X153876285Y-32405619D02*
X153923904Y-32500857D01*
X153923904Y-32500857D02*
X153923904Y-32596095D01*
X153923904Y-32596095D02*
X153876285Y-32738952D01*
X153876285Y-32738952D02*
X153304857Y-33310380D01*
X153304857Y-33310380D02*
X153923904Y-33310380D01*
X154257238Y-33310380D02*
X154781047Y-32643714D01*
X154257238Y-32643714D02*
X154781047Y-33310380D01*
X155685809Y-33310380D02*
X155114381Y-33310380D01*
X155400095Y-33310380D02*
X155400095Y-32310380D01*
X155400095Y-32310380D02*
X155304857Y-32453238D01*
X155304857Y-32453238D02*
X155209619Y-32548476D01*
X155209619Y-32548476D02*
X155114381Y-32596095D01*
X156019143Y-32310380D02*
X156685809Y-32310380D01*
X156685809Y-32310380D02*
X156257238Y-33310380D01*
X157066762Y-32643714D02*
X157066762Y-33643714D01*
X157066762Y-32691333D02*
X157162000Y-32643714D01*
X157162000Y-32643714D02*
X157352476Y-32643714D01*
X157352476Y-32643714D02*
X157447714Y-32691333D01*
X157447714Y-32691333D02*
X157495333Y-32738952D01*
X157495333Y-32738952D02*
X157542952Y-32834190D01*
X157542952Y-32834190D02*
X157542952Y-33119904D01*
X157542952Y-33119904D02*
X157495333Y-33215142D01*
X157495333Y-33215142D02*
X157447714Y-33262761D01*
X157447714Y-33262761D02*
X157352476Y-33310380D01*
X157352476Y-33310380D02*
X157162000Y-33310380D01*
X157162000Y-33310380D02*
X157066762Y-33262761D01*
X175319761Y-83309523D02*
X175367380Y-83166666D01*
X175367380Y-83166666D02*
X175367380Y-82928571D01*
X175367380Y-82928571D02*
X175319761Y-82833333D01*
X175319761Y-82833333D02*
X175272142Y-82785714D01*
X175272142Y-82785714D02*
X175176904Y-82738095D01*
X175176904Y-82738095D02*
X175081666Y-82738095D01*
X175081666Y-82738095D02*
X174986428Y-82785714D01*
X174986428Y-82785714D02*
X174938809Y-82833333D01*
X174938809Y-82833333D02*
X174891190Y-82928571D01*
X174891190Y-82928571D02*
X174843571Y-83119047D01*
X174843571Y-83119047D02*
X174795952Y-83214285D01*
X174795952Y-83214285D02*
X174748333Y-83261904D01*
X174748333Y-83261904D02*
X174653095Y-83309523D01*
X174653095Y-83309523D02*
X174557857Y-83309523D01*
X174557857Y-83309523D02*
X174462619Y-83261904D01*
X174462619Y-83261904D02*
X174415000Y-83214285D01*
X174415000Y-83214285D02*
X174367380Y-83119047D01*
X174367380Y-83119047D02*
X174367380Y-82880952D01*
X174367380Y-82880952D02*
X174415000Y-82738095D01*
X175367380Y-81738095D02*
X174891190Y-82071428D01*
X175367380Y-82309523D02*
X174367380Y-82309523D01*
X174367380Y-82309523D02*
X174367380Y-81928571D01*
X174367380Y-81928571D02*
X174415000Y-81833333D01*
X174415000Y-81833333D02*
X174462619Y-81785714D01*
X174462619Y-81785714D02*
X174557857Y-81738095D01*
X174557857Y-81738095D02*
X174700714Y-81738095D01*
X174700714Y-81738095D02*
X174795952Y-81785714D01*
X174795952Y-81785714D02*
X174843571Y-81833333D01*
X174843571Y-81833333D02*
X174891190Y-81928571D01*
X174891190Y-81928571D02*
X174891190Y-82309523D01*
X175272142Y-80738095D02*
X175319761Y-80785714D01*
X175319761Y-80785714D02*
X175367380Y-80928571D01*
X175367380Y-80928571D02*
X175367380Y-81023809D01*
X175367380Y-81023809D02*
X175319761Y-81166666D01*
X175319761Y-81166666D02*
X175224523Y-81261904D01*
X175224523Y-81261904D02*
X175129285Y-81309523D01*
X175129285Y-81309523D02*
X174938809Y-81357142D01*
X174938809Y-81357142D02*
X174795952Y-81357142D01*
X174795952Y-81357142D02*
X174605476Y-81309523D01*
X174605476Y-81309523D02*
X174510238Y-81261904D01*
X174510238Y-81261904D02*
X174415000Y-81166666D01*
X174415000Y-81166666D02*
X174367380Y-81023809D01*
X174367380Y-81023809D02*
X174367380Y-80928571D01*
X174367380Y-80928571D02*
X174415000Y-80785714D01*
X174415000Y-80785714D02*
X174462619Y-80738095D01*
X175367380Y-79833333D02*
X175367380Y-80309523D01*
X175367380Y-80309523D02*
X174367380Y-80309523D01*
X175367380Y-79499999D02*
X174367380Y-79499999D01*
X175367380Y-78928571D02*
X174795952Y-79357142D01*
X174367380Y-78928571D02*
X174938809Y-79499999D01*
X147343571Y-83261904D02*
X147343571Y-82928571D01*
X147867380Y-82785714D02*
X147867380Y-83261904D01*
X147867380Y-83261904D02*
X146867380Y-83261904D01*
X146867380Y-83261904D02*
X146867380Y-82785714D01*
X146515000Y-83400000D02*
X146515000Y-82695238D01*
X148091666Y-82428571D02*
X147391666Y-82428571D01*
X147391666Y-82428571D02*
X147891666Y-82195238D01*
X147891666Y-82195238D02*
X147391666Y-81961904D01*
X147391666Y-81961904D02*
X148091666Y-81961904D01*
X147391666Y-81628571D02*
X147958333Y-81628571D01*
X147958333Y-81628571D02*
X148025000Y-81595238D01*
X148025000Y-81595238D02*
X148058333Y-81561904D01*
X148058333Y-81561904D02*
X148091666Y-81495238D01*
X148091666Y-81495238D02*
X148091666Y-81361904D01*
X148091666Y-81361904D02*
X148058333Y-81295238D01*
X148058333Y-81295238D02*
X148025000Y-81261904D01*
X148025000Y-81261904D02*
X147958333Y-81228571D01*
X147958333Y-81228571D02*
X147391666Y-81228571D01*
X147391666Y-80961905D02*
X148091666Y-80495238D01*
X147391666Y-80495238D02*
X148091666Y-80961905D01*
X148091666Y-79861904D02*
X148091666Y-80261904D01*
X148091666Y-80061904D02*
X147391666Y-80061904D01*
X147391666Y-80061904D02*
X147491666Y-80128571D01*
X147491666Y-80128571D02*
X147558333Y-80195238D01*
X147558333Y-80195238D02*
X147591666Y-80261904D01*
X162015000Y-83820095D02*
X161967380Y-83915333D01*
X161967380Y-83915333D02*
X161967380Y-84058190D01*
X161967380Y-84058190D02*
X162015000Y-84201047D01*
X162015000Y-84201047D02*
X162110238Y-84296285D01*
X162110238Y-84296285D02*
X162205476Y-84343904D01*
X162205476Y-84343904D02*
X162395952Y-84391523D01*
X162395952Y-84391523D02*
X162538809Y-84391523D01*
X162538809Y-84391523D02*
X162729285Y-84343904D01*
X162729285Y-84343904D02*
X162824523Y-84296285D01*
X162824523Y-84296285D02*
X162919761Y-84201047D01*
X162919761Y-84201047D02*
X162967380Y-84058190D01*
X162967380Y-84058190D02*
X162967380Y-83962952D01*
X162967380Y-83962952D02*
X162919761Y-83820095D01*
X162919761Y-83820095D02*
X162872142Y-83772476D01*
X162872142Y-83772476D02*
X162538809Y-83772476D01*
X162538809Y-83772476D02*
X162538809Y-83962952D01*
X162967380Y-83343904D02*
X161967380Y-83343904D01*
X161967380Y-83343904D02*
X162967380Y-82772476D01*
X162967380Y-82772476D02*
X161967380Y-82772476D01*
X162967380Y-82296285D02*
X161967380Y-82296285D01*
X161967380Y-82296285D02*
X161967380Y-82058190D01*
X161967380Y-82058190D02*
X162015000Y-81915333D01*
X162015000Y-81915333D02*
X162110238Y-81820095D01*
X162110238Y-81820095D02*
X162205476Y-81772476D01*
X162205476Y-81772476D02*
X162395952Y-81724857D01*
X162395952Y-81724857D02*
X162538809Y-81724857D01*
X162538809Y-81724857D02*
X162729285Y-81772476D01*
X162729285Y-81772476D02*
X162824523Y-81820095D01*
X162824523Y-81820095D02*
X162919761Y-81915333D01*
X162919761Y-81915333D02*
X162967380Y-82058190D01*
X162967380Y-82058190D02*
X162967380Y-82296285D01*
X149843571Y-83261904D02*
X149843571Y-82928571D01*
X150367380Y-82785714D02*
X150367380Y-83261904D01*
X150367380Y-83261904D02*
X149367380Y-83261904D01*
X149367380Y-83261904D02*
X149367380Y-82785714D01*
X149015000Y-83400000D02*
X149015000Y-82695238D01*
X150591666Y-82428571D02*
X149891666Y-82428571D01*
X149891666Y-82428571D02*
X150391666Y-82195238D01*
X150391666Y-82195238D02*
X149891666Y-81961904D01*
X149891666Y-81961904D02*
X150591666Y-81961904D01*
X149891666Y-81628571D02*
X150458333Y-81628571D01*
X150458333Y-81628571D02*
X150525000Y-81595238D01*
X150525000Y-81595238D02*
X150558333Y-81561904D01*
X150558333Y-81561904D02*
X150591666Y-81495238D01*
X150591666Y-81495238D02*
X150591666Y-81361904D01*
X150591666Y-81361904D02*
X150558333Y-81295238D01*
X150558333Y-81295238D02*
X150525000Y-81261904D01*
X150525000Y-81261904D02*
X150458333Y-81228571D01*
X150458333Y-81228571D02*
X149891666Y-81228571D01*
X149891666Y-80961905D02*
X150591666Y-80495238D01*
X149891666Y-80495238D02*
X150591666Y-80961905D01*
X149958333Y-80261904D02*
X149925000Y-80228571D01*
X149925000Y-80228571D02*
X149891666Y-80161904D01*
X149891666Y-80161904D02*
X149891666Y-79995238D01*
X149891666Y-79995238D02*
X149925000Y-79928571D01*
X149925000Y-79928571D02*
X149958333Y-79895238D01*
X149958333Y-79895238D02*
X150025000Y-79861904D01*
X150025000Y-79861904D02*
X150091666Y-79861904D01*
X150091666Y-79861904D02*
X150191666Y-79895238D01*
X150191666Y-79895238D02*
X150591666Y-80295238D01*
X150591666Y-80295238D02*
X150591666Y-79861904D01*
%TO.C,C4*%
X135453333Y-73424142D02*
X135405714Y-73471761D01*
X135405714Y-73471761D02*
X135262857Y-73519380D01*
X135262857Y-73519380D02*
X135167619Y-73519380D01*
X135167619Y-73519380D02*
X135024762Y-73471761D01*
X135024762Y-73471761D02*
X134929524Y-73376523D01*
X134929524Y-73376523D02*
X134881905Y-73281285D01*
X134881905Y-73281285D02*
X134834286Y-73090809D01*
X134834286Y-73090809D02*
X134834286Y-72947952D01*
X134834286Y-72947952D02*
X134881905Y-72757476D01*
X134881905Y-72757476D02*
X134929524Y-72662238D01*
X134929524Y-72662238D02*
X135024762Y-72567000D01*
X135024762Y-72567000D02*
X135167619Y-72519380D01*
X135167619Y-72519380D02*
X135262857Y-72519380D01*
X135262857Y-72519380D02*
X135405714Y-72567000D01*
X135405714Y-72567000D02*
X135453333Y-72614619D01*
X136310476Y-72852714D02*
X136310476Y-73519380D01*
X136072381Y-72471761D02*
X135834286Y-73186047D01*
X135834286Y-73186047D02*
X136453333Y-73186047D01*
%TO.C,C2*%
X176633333Y-55644142D02*
X176585714Y-55691761D01*
X176585714Y-55691761D02*
X176442857Y-55739380D01*
X176442857Y-55739380D02*
X176347619Y-55739380D01*
X176347619Y-55739380D02*
X176204762Y-55691761D01*
X176204762Y-55691761D02*
X176109524Y-55596523D01*
X176109524Y-55596523D02*
X176061905Y-55501285D01*
X176061905Y-55501285D02*
X176014286Y-55310809D01*
X176014286Y-55310809D02*
X176014286Y-55167952D01*
X176014286Y-55167952D02*
X176061905Y-54977476D01*
X176061905Y-54977476D02*
X176109524Y-54882238D01*
X176109524Y-54882238D02*
X176204762Y-54787000D01*
X176204762Y-54787000D02*
X176347619Y-54739380D01*
X176347619Y-54739380D02*
X176442857Y-54739380D01*
X176442857Y-54739380D02*
X176585714Y-54787000D01*
X176585714Y-54787000D02*
X176633333Y-54834619D01*
X177014286Y-54834619D02*
X177061905Y-54787000D01*
X177061905Y-54787000D02*
X177157143Y-54739380D01*
X177157143Y-54739380D02*
X177395238Y-54739380D01*
X177395238Y-54739380D02*
X177490476Y-54787000D01*
X177490476Y-54787000D02*
X177538095Y-54834619D01*
X177538095Y-54834619D02*
X177585714Y-54929857D01*
X177585714Y-54929857D02*
X177585714Y-55025095D01*
X177585714Y-55025095D02*
X177538095Y-55167952D01*
X177538095Y-55167952D02*
X176966667Y-55739380D01*
X176966667Y-55739380D02*
X177585714Y-55739380D01*
%TO.C,J3*%
X156892666Y-85727380D02*
X156892666Y-86441666D01*
X156892666Y-86441666D02*
X156845047Y-86584523D01*
X156845047Y-86584523D02*
X156749809Y-86679761D01*
X156749809Y-86679761D02*
X156606952Y-86727380D01*
X156606952Y-86727380D02*
X156511714Y-86727380D01*
X157273619Y-85727380D02*
X157892666Y-85727380D01*
X157892666Y-85727380D02*
X157559333Y-86108333D01*
X157559333Y-86108333D02*
X157702190Y-86108333D01*
X157702190Y-86108333D02*
X157797428Y-86155952D01*
X157797428Y-86155952D02*
X157845047Y-86203571D01*
X157845047Y-86203571D02*
X157892666Y-86298809D01*
X157892666Y-86298809D02*
X157892666Y-86536904D01*
X157892666Y-86536904D02*
X157845047Y-86632142D01*
X157845047Y-86632142D02*
X157797428Y-86679761D01*
X157797428Y-86679761D02*
X157702190Y-86727380D01*
X157702190Y-86727380D02*
X157416476Y-86727380D01*
X157416476Y-86727380D02*
X157321238Y-86679761D01*
X157321238Y-86679761D02*
X157273619Y-86632142D01*
%TO.C,R1*%
X136257380Y-66206666D02*
X135781190Y-66539999D01*
X136257380Y-66778094D02*
X135257380Y-66778094D01*
X135257380Y-66778094D02*
X135257380Y-66397142D01*
X135257380Y-66397142D02*
X135305000Y-66301904D01*
X135305000Y-66301904D02*
X135352619Y-66254285D01*
X135352619Y-66254285D02*
X135447857Y-66206666D01*
X135447857Y-66206666D02*
X135590714Y-66206666D01*
X135590714Y-66206666D02*
X135685952Y-66254285D01*
X135685952Y-66254285D02*
X135733571Y-66301904D01*
X135733571Y-66301904D02*
X135781190Y-66397142D01*
X135781190Y-66397142D02*
X135781190Y-66778094D01*
X136257380Y-65254285D02*
X136257380Y-65825713D01*
X136257380Y-65539999D02*
X135257380Y-65539999D01*
X135257380Y-65539999D02*
X135400238Y-65635237D01*
X135400238Y-65635237D02*
X135495476Y-65730475D01*
X135495476Y-65730475D02*
X135543095Y-65825713D01*
%TO.C,J2*%
X165782666Y-83187380D02*
X165782666Y-83901666D01*
X165782666Y-83901666D02*
X165735047Y-84044523D01*
X165735047Y-84044523D02*
X165639809Y-84139761D01*
X165639809Y-84139761D02*
X165496952Y-84187380D01*
X165496952Y-84187380D02*
X165401714Y-84187380D01*
X166211238Y-83282619D02*
X166258857Y-83235000D01*
X166258857Y-83235000D02*
X166354095Y-83187380D01*
X166354095Y-83187380D02*
X166592190Y-83187380D01*
X166592190Y-83187380D02*
X166687428Y-83235000D01*
X166687428Y-83235000D02*
X166735047Y-83282619D01*
X166735047Y-83282619D02*
X166782666Y-83377857D01*
X166782666Y-83377857D02*
X166782666Y-83473095D01*
X166782666Y-83473095D02*
X166735047Y-83615952D01*
X166735047Y-83615952D02*
X166163619Y-84187380D01*
X166163619Y-84187380D02*
X166782666Y-84187380D01*
%TO.C,J4*%
X150034666Y-32387380D02*
X150034666Y-33101666D01*
X150034666Y-33101666D02*
X149987047Y-33244523D01*
X149987047Y-33244523D02*
X149891809Y-33339761D01*
X149891809Y-33339761D02*
X149748952Y-33387380D01*
X149748952Y-33387380D02*
X149653714Y-33387380D01*
X150939428Y-32720714D02*
X150939428Y-33387380D01*
X150701333Y-32339761D02*
X150463238Y-33054047D01*
X150463238Y-33054047D02*
X151082285Y-33054047D01*
%TO.C,MUX1*%
X141700476Y-33641380D02*
X141700476Y-32641380D01*
X141700476Y-32641380D02*
X142033809Y-33355666D01*
X142033809Y-33355666D02*
X142367142Y-32641380D01*
X142367142Y-32641380D02*
X142367142Y-33641380D01*
X142843333Y-32641380D02*
X142843333Y-33450904D01*
X142843333Y-33450904D02*
X142890952Y-33546142D01*
X142890952Y-33546142D02*
X142938571Y-33593761D01*
X142938571Y-33593761D02*
X143033809Y-33641380D01*
X143033809Y-33641380D02*
X143224285Y-33641380D01*
X143224285Y-33641380D02*
X143319523Y-33593761D01*
X143319523Y-33593761D02*
X143367142Y-33546142D01*
X143367142Y-33546142D02*
X143414761Y-33450904D01*
X143414761Y-33450904D02*
X143414761Y-32641380D01*
X143795714Y-32641380D02*
X144462380Y-33641380D01*
X144462380Y-32641380D02*
X143795714Y-33641380D01*
X145367142Y-33641380D02*
X144795714Y-33641380D01*
X145081428Y-33641380D02*
X145081428Y-32641380D01*
X145081428Y-32641380D02*
X144986190Y-32784238D01*
X144986190Y-32784238D02*
X144890952Y-32879476D01*
X144890952Y-32879476D02*
X144795714Y-32927095D01*
%TO.C,C3*%
X135469333Y-50564142D02*
X135421714Y-50611761D01*
X135421714Y-50611761D02*
X135278857Y-50659380D01*
X135278857Y-50659380D02*
X135183619Y-50659380D01*
X135183619Y-50659380D02*
X135040762Y-50611761D01*
X135040762Y-50611761D02*
X134945524Y-50516523D01*
X134945524Y-50516523D02*
X134897905Y-50421285D01*
X134897905Y-50421285D02*
X134850286Y-50230809D01*
X134850286Y-50230809D02*
X134850286Y-50087952D01*
X134850286Y-50087952D02*
X134897905Y-49897476D01*
X134897905Y-49897476D02*
X134945524Y-49802238D01*
X134945524Y-49802238D02*
X135040762Y-49707000D01*
X135040762Y-49707000D02*
X135183619Y-49659380D01*
X135183619Y-49659380D02*
X135278857Y-49659380D01*
X135278857Y-49659380D02*
X135421714Y-49707000D01*
X135421714Y-49707000D02*
X135469333Y-49754619D01*
X135802667Y-49659380D02*
X136421714Y-49659380D01*
X136421714Y-49659380D02*
X136088381Y-50040333D01*
X136088381Y-50040333D02*
X136231238Y-50040333D01*
X136231238Y-50040333D02*
X136326476Y-50087952D01*
X136326476Y-50087952D02*
X136374095Y-50135571D01*
X136374095Y-50135571D02*
X136421714Y-50230809D01*
X136421714Y-50230809D02*
X136421714Y-50468904D01*
X136421714Y-50468904D02*
X136374095Y-50564142D01*
X136374095Y-50564142D02*
X136326476Y-50611761D01*
X136326476Y-50611761D02*
X136231238Y-50659380D01*
X136231238Y-50659380D02*
X135945524Y-50659380D01*
X135945524Y-50659380D02*
X135850286Y-50611761D01*
X135850286Y-50611761D02*
X135802667Y-50564142D01*
%TO.C,SR2*%
X167648095Y-56453761D02*
X167790952Y-56501380D01*
X167790952Y-56501380D02*
X168029047Y-56501380D01*
X168029047Y-56501380D02*
X168124285Y-56453761D01*
X168124285Y-56453761D02*
X168171904Y-56406142D01*
X168171904Y-56406142D02*
X168219523Y-56310904D01*
X168219523Y-56310904D02*
X168219523Y-56215666D01*
X168219523Y-56215666D02*
X168171904Y-56120428D01*
X168171904Y-56120428D02*
X168124285Y-56072809D01*
X168124285Y-56072809D02*
X168029047Y-56025190D01*
X168029047Y-56025190D02*
X167838571Y-55977571D01*
X167838571Y-55977571D02*
X167743333Y-55929952D01*
X167743333Y-55929952D02*
X167695714Y-55882333D01*
X167695714Y-55882333D02*
X167648095Y-55787095D01*
X167648095Y-55787095D02*
X167648095Y-55691857D01*
X167648095Y-55691857D02*
X167695714Y-55596619D01*
X167695714Y-55596619D02*
X167743333Y-55549000D01*
X167743333Y-55549000D02*
X167838571Y-55501380D01*
X167838571Y-55501380D02*
X168076666Y-55501380D01*
X168076666Y-55501380D02*
X168219523Y-55549000D01*
X169219523Y-56501380D02*
X168886190Y-56025190D01*
X168648095Y-56501380D02*
X168648095Y-55501380D01*
X168648095Y-55501380D02*
X169029047Y-55501380D01*
X169029047Y-55501380D02*
X169124285Y-55549000D01*
X169124285Y-55549000D02*
X169171904Y-55596619D01*
X169171904Y-55596619D02*
X169219523Y-55691857D01*
X169219523Y-55691857D02*
X169219523Y-55834714D01*
X169219523Y-55834714D02*
X169171904Y-55929952D01*
X169171904Y-55929952D02*
X169124285Y-55977571D01*
X169124285Y-55977571D02*
X169029047Y-56025190D01*
X169029047Y-56025190D02*
X168648095Y-56025190D01*
X169600476Y-55596619D02*
X169648095Y-55549000D01*
X169648095Y-55549000D02*
X169743333Y-55501380D01*
X169743333Y-55501380D02*
X169981428Y-55501380D01*
X169981428Y-55501380D02*
X170076666Y-55549000D01*
X170076666Y-55549000D02*
X170124285Y-55596619D01*
X170124285Y-55596619D02*
X170171904Y-55691857D01*
X170171904Y-55691857D02*
X170171904Y-55787095D01*
X170171904Y-55787095D02*
X170124285Y-55929952D01*
X170124285Y-55929952D02*
X169552857Y-56501380D01*
X169552857Y-56501380D02*
X170171904Y-56501380D01*
%TO.C,SR1*%
X167648095Y-33593761D02*
X167790952Y-33641380D01*
X167790952Y-33641380D02*
X168029047Y-33641380D01*
X168029047Y-33641380D02*
X168124285Y-33593761D01*
X168124285Y-33593761D02*
X168171904Y-33546142D01*
X168171904Y-33546142D02*
X168219523Y-33450904D01*
X168219523Y-33450904D02*
X168219523Y-33355666D01*
X168219523Y-33355666D02*
X168171904Y-33260428D01*
X168171904Y-33260428D02*
X168124285Y-33212809D01*
X168124285Y-33212809D02*
X168029047Y-33165190D01*
X168029047Y-33165190D02*
X167838571Y-33117571D01*
X167838571Y-33117571D02*
X167743333Y-33069952D01*
X167743333Y-33069952D02*
X167695714Y-33022333D01*
X167695714Y-33022333D02*
X167648095Y-32927095D01*
X167648095Y-32927095D02*
X167648095Y-32831857D01*
X167648095Y-32831857D02*
X167695714Y-32736619D01*
X167695714Y-32736619D02*
X167743333Y-32689000D01*
X167743333Y-32689000D02*
X167838571Y-32641380D01*
X167838571Y-32641380D02*
X168076666Y-32641380D01*
X168076666Y-32641380D02*
X168219523Y-32689000D01*
X169219523Y-33641380D02*
X168886190Y-33165190D01*
X168648095Y-33641380D02*
X168648095Y-32641380D01*
X168648095Y-32641380D02*
X169029047Y-32641380D01*
X169029047Y-32641380D02*
X169124285Y-32689000D01*
X169124285Y-32689000D02*
X169171904Y-32736619D01*
X169171904Y-32736619D02*
X169219523Y-32831857D01*
X169219523Y-32831857D02*
X169219523Y-32974714D01*
X169219523Y-32974714D02*
X169171904Y-33069952D01*
X169171904Y-33069952D02*
X169124285Y-33117571D01*
X169124285Y-33117571D02*
X169029047Y-33165190D01*
X169029047Y-33165190D02*
X168648095Y-33165190D01*
X170171904Y-33641380D02*
X169600476Y-33641380D01*
X169886190Y-33641380D02*
X169886190Y-32641380D01*
X169886190Y-32641380D02*
X169790952Y-32784238D01*
X169790952Y-32784238D02*
X169695714Y-32879476D01*
X169695714Y-32879476D02*
X169600476Y-32927095D01*
%TO.C,MUX2*%
X141700476Y-56501380D02*
X141700476Y-55501380D01*
X141700476Y-55501380D02*
X142033809Y-56215666D01*
X142033809Y-56215666D02*
X142367142Y-55501380D01*
X142367142Y-55501380D02*
X142367142Y-56501380D01*
X142843333Y-55501380D02*
X142843333Y-56310904D01*
X142843333Y-56310904D02*
X142890952Y-56406142D01*
X142890952Y-56406142D02*
X142938571Y-56453761D01*
X142938571Y-56453761D02*
X143033809Y-56501380D01*
X143033809Y-56501380D02*
X143224285Y-56501380D01*
X143224285Y-56501380D02*
X143319523Y-56453761D01*
X143319523Y-56453761D02*
X143367142Y-56406142D01*
X143367142Y-56406142D02*
X143414761Y-56310904D01*
X143414761Y-56310904D02*
X143414761Y-55501380D01*
X143795714Y-55501380D02*
X144462380Y-56501380D01*
X144462380Y-55501380D02*
X143795714Y-56501380D01*
X144795714Y-55596619D02*
X144843333Y-55549000D01*
X144843333Y-55549000D02*
X144938571Y-55501380D01*
X144938571Y-55501380D02*
X145176666Y-55501380D01*
X145176666Y-55501380D02*
X145271904Y-55549000D01*
X145271904Y-55549000D02*
X145319523Y-55596619D01*
X145319523Y-55596619D02*
X145367142Y-55691857D01*
X145367142Y-55691857D02*
X145367142Y-55787095D01*
X145367142Y-55787095D02*
X145319523Y-55929952D01*
X145319523Y-55929952D02*
X144748095Y-56501380D01*
X144748095Y-56501380D02*
X145367142Y-56501380D01*
%TO.C,C1*%
X176633333Y-32784142D02*
X176585714Y-32831761D01*
X176585714Y-32831761D02*
X176442857Y-32879380D01*
X176442857Y-32879380D02*
X176347619Y-32879380D01*
X176347619Y-32879380D02*
X176204762Y-32831761D01*
X176204762Y-32831761D02*
X176109524Y-32736523D01*
X176109524Y-32736523D02*
X176061905Y-32641285D01*
X176061905Y-32641285D02*
X176014286Y-32450809D01*
X176014286Y-32450809D02*
X176014286Y-32307952D01*
X176014286Y-32307952D02*
X176061905Y-32117476D01*
X176061905Y-32117476D02*
X176109524Y-32022238D01*
X176109524Y-32022238D02*
X176204762Y-31927000D01*
X176204762Y-31927000D02*
X176347619Y-31879380D01*
X176347619Y-31879380D02*
X176442857Y-31879380D01*
X176442857Y-31879380D02*
X176585714Y-31927000D01*
X176585714Y-31927000D02*
X176633333Y-31974619D01*
X177585714Y-32879380D02*
X177014286Y-32879380D01*
X177300000Y-32879380D02*
X177300000Y-31879380D01*
X177300000Y-31879380D02*
X177204762Y-32022238D01*
X177204762Y-32022238D02*
X177109524Y-32117476D01*
X177109524Y-32117476D02*
X177014286Y-32165095D01*
%TO.C,J1*%
X135810666Y-83187380D02*
X135810666Y-83901666D01*
X135810666Y-83901666D02*
X135763047Y-84044523D01*
X135763047Y-84044523D02*
X135667809Y-84139761D01*
X135667809Y-84139761D02*
X135524952Y-84187380D01*
X135524952Y-84187380D02*
X135429714Y-84187380D01*
X136810666Y-84187380D02*
X136239238Y-84187380D01*
X136524952Y-84187380D02*
X136524952Y-83187380D01*
X136524952Y-83187380D02*
X136429714Y-83330238D01*
X136429714Y-83330238D02*
X136334476Y-83425476D01*
X136334476Y-83425476D02*
X136239238Y-83473095D01*
D12*
%TO.C,C4*%
X137889801Y-77395000D02*
X137489801Y-77395000D01*
X137689801Y-77595000D02*
X137689801Y-77195000D01*
X135620000Y-78280000D02*
X135620000Y-74120000D01*
X135580000Y-78280000D02*
X135580000Y-74120000D01*
X135540000Y-78279000D02*
X135540000Y-74121000D01*
X135500000Y-78277000D02*
X135500000Y-74123000D01*
X135460000Y-78274000D02*
X135460000Y-74126000D01*
X135420000Y-78271000D02*
X135420000Y-77040000D01*
X135420000Y-75360000D02*
X135420000Y-74129000D01*
X135380000Y-78267000D02*
X135380000Y-77040000D01*
X135380000Y-75360000D02*
X135380000Y-74133000D01*
X135340000Y-78262000D02*
X135340000Y-77040000D01*
X135340000Y-75360000D02*
X135340000Y-74138000D01*
X135300000Y-78256000D02*
X135300000Y-77040000D01*
X135300000Y-75360000D02*
X135300000Y-74144000D01*
X135260000Y-78250000D02*
X135260000Y-77040000D01*
X135260000Y-75360000D02*
X135260000Y-74150000D01*
X135220000Y-78242000D02*
X135220000Y-77040000D01*
X135220000Y-75360000D02*
X135220000Y-74158000D01*
X135180000Y-78234000D02*
X135180000Y-77040000D01*
X135180000Y-75360000D02*
X135180000Y-74166000D01*
X135140000Y-78225000D02*
X135140000Y-77040000D01*
X135140000Y-75360000D02*
X135140000Y-74175000D01*
X135100000Y-78216000D02*
X135100000Y-77040000D01*
X135100000Y-75360000D02*
X135100000Y-74184000D01*
X135060000Y-78205000D02*
X135060000Y-77040000D01*
X135060000Y-75360000D02*
X135060000Y-74195000D01*
X135020000Y-78194000D02*
X135020000Y-77040000D01*
X135020000Y-75360000D02*
X135020000Y-74206000D01*
X134980000Y-78182000D02*
X134980000Y-77040000D01*
X134980000Y-75360000D02*
X134980000Y-74218000D01*
X134940000Y-78168000D02*
X134940000Y-77040000D01*
X134940000Y-75360000D02*
X134940000Y-74232000D01*
X134899000Y-78154000D02*
X134899000Y-77040000D01*
X134899000Y-75360000D02*
X134899000Y-74246000D01*
X134859000Y-78140000D02*
X134859000Y-77040000D01*
X134859000Y-75360000D02*
X134859000Y-74260000D01*
X134819000Y-78124000D02*
X134819000Y-77040000D01*
X134819000Y-75360000D02*
X134819000Y-74276000D01*
X134779000Y-78107000D02*
X134779000Y-77040000D01*
X134779000Y-75360000D02*
X134779000Y-74293000D01*
X134739000Y-78089000D02*
X134739000Y-77040000D01*
X134739000Y-75360000D02*
X134739000Y-74311000D01*
X134699000Y-78070000D02*
X134699000Y-77040000D01*
X134699000Y-75360000D02*
X134699000Y-74330000D01*
X134659000Y-78051000D02*
X134659000Y-77040000D01*
X134659000Y-75360000D02*
X134659000Y-74349000D01*
X134619000Y-78030000D02*
X134619000Y-77040000D01*
X134619000Y-75360000D02*
X134619000Y-74370000D01*
X134579000Y-78008000D02*
X134579000Y-77040000D01*
X134579000Y-75360000D02*
X134579000Y-74392000D01*
X134539000Y-77985000D02*
X134539000Y-77040000D01*
X134539000Y-75360000D02*
X134539000Y-74415000D01*
X134499000Y-77960000D02*
X134499000Y-77040000D01*
X134499000Y-75360000D02*
X134499000Y-74440000D01*
X134459000Y-77935000D02*
X134459000Y-77040000D01*
X134459000Y-75360000D02*
X134459000Y-74465000D01*
X134419000Y-77908000D02*
X134419000Y-77040000D01*
X134419000Y-75360000D02*
X134419000Y-74492000D01*
X134379000Y-77880000D02*
X134379000Y-77040000D01*
X134379000Y-75360000D02*
X134379000Y-74520000D01*
X134339000Y-77850000D02*
X134339000Y-77040000D01*
X134339000Y-75360000D02*
X134339000Y-74550000D01*
X134299000Y-77819000D02*
X134299000Y-77040000D01*
X134299000Y-75360000D02*
X134299000Y-74581000D01*
X134259000Y-77787000D02*
X134259000Y-77040000D01*
X134259000Y-75360000D02*
X134259000Y-74613000D01*
X134219000Y-77752000D02*
X134219000Y-77040000D01*
X134219000Y-75360000D02*
X134219000Y-74648000D01*
X134179000Y-77716000D02*
X134179000Y-77040000D01*
X134179000Y-75360000D02*
X134179000Y-74684000D01*
X134139000Y-77678000D02*
X134139000Y-77040000D01*
X134139000Y-75360000D02*
X134139000Y-74722000D01*
X134099000Y-77638000D02*
X134099000Y-77040000D01*
X134099000Y-75360000D02*
X134099000Y-74762000D01*
X134059000Y-77596000D02*
X134059000Y-77040000D01*
X134059000Y-75360000D02*
X134059000Y-74804000D01*
X134019000Y-77551000D02*
X134019000Y-77040000D01*
X134019000Y-75360000D02*
X134019000Y-74849000D01*
X133979000Y-77504000D02*
X133979000Y-77040000D01*
X133979000Y-75360000D02*
X133979000Y-74896000D01*
X133939000Y-77454000D02*
X133939000Y-77040000D01*
X133939000Y-75360000D02*
X133939000Y-74946000D01*
X133899000Y-77400000D02*
X133899000Y-77040000D01*
X133899000Y-75360000D02*
X133899000Y-75000000D01*
X133859000Y-77342000D02*
X133859000Y-77040000D01*
X133859000Y-75360000D02*
X133859000Y-75058000D01*
X133819000Y-77280000D02*
X133819000Y-77040000D01*
X133819000Y-75360000D02*
X133819000Y-75120000D01*
X133779000Y-77213000D02*
X133779000Y-75187000D01*
X133739000Y-77140000D02*
X133739000Y-75260000D01*
X133699000Y-77059000D02*
X133699000Y-75341000D01*
X133659000Y-76968000D02*
X133659000Y-75432000D01*
X133619000Y-76864000D02*
X133619000Y-75536000D01*
X133579000Y-76737000D02*
X133579000Y-75663000D01*
X133539000Y-76570000D02*
X133539000Y-75830000D01*
X137740000Y-76200000D02*
G75*
G03*
X137740000Y-76200000I-2120000J0D01*
G01*
%TO.C,C2*%
X174530199Y-57225000D02*
X174930199Y-57225000D01*
X174730199Y-57025000D02*
X174730199Y-57425000D01*
X176800000Y-56340000D02*
X176800000Y-60500000D01*
X176840000Y-56340000D02*
X176840000Y-60500000D01*
X176880000Y-56341000D02*
X176880000Y-60499000D01*
X176920000Y-56343000D02*
X176920000Y-60497000D01*
X176960000Y-56346000D02*
X176960000Y-60494000D01*
X177000000Y-56349000D02*
X177000000Y-57580000D01*
X177000000Y-59260000D02*
X177000000Y-60491000D01*
X177040000Y-56353000D02*
X177040000Y-57580000D01*
X177040000Y-59260000D02*
X177040000Y-60487000D01*
X177080000Y-56358000D02*
X177080000Y-57580000D01*
X177080000Y-59260000D02*
X177080000Y-60482000D01*
X177120000Y-56364000D02*
X177120000Y-57580000D01*
X177120000Y-59260000D02*
X177120000Y-60476000D01*
X177160000Y-56370000D02*
X177160000Y-57580000D01*
X177160000Y-59260000D02*
X177160000Y-60470000D01*
X177200000Y-56378000D02*
X177200000Y-57580000D01*
X177200000Y-59260000D02*
X177200000Y-60462000D01*
X177240000Y-56386000D02*
X177240000Y-57580000D01*
X177240000Y-59260000D02*
X177240000Y-60454000D01*
X177280000Y-56395000D02*
X177280000Y-57580000D01*
X177280000Y-59260000D02*
X177280000Y-60445000D01*
X177320000Y-56404000D02*
X177320000Y-57580000D01*
X177320000Y-59260000D02*
X177320000Y-60436000D01*
X177360000Y-56415000D02*
X177360000Y-57580000D01*
X177360000Y-59260000D02*
X177360000Y-60425000D01*
X177400000Y-56426000D02*
X177400000Y-57580000D01*
X177400000Y-59260000D02*
X177400000Y-60414000D01*
X177440000Y-56438000D02*
X177440000Y-57580000D01*
X177440000Y-59260000D02*
X177440000Y-60402000D01*
X177480000Y-56452000D02*
X177480000Y-57580000D01*
X177480000Y-59260000D02*
X177480000Y-60388000D01*
X177521000Y-56466000D02*
X177521000Y-57580000D01*
X177521000Y-59260000D02*
X177521000Y-60374000D01*
X177561000Y-56480000D02*
X177561000Y-57580000D01*
X177561000Y-59260000D02*
X177561000Y-60360000D01*
X177601000Y-56496000D02*
X177601000Y-57580000D01*
X177601000Y-59260000D02*
X177601000Y-60344000D01*
X177641000Y-56513000D02*
X177641000Y-57580000D01*
X177641000Y-59260000D02*
X177641000Y-60327000D01*
X177681000Y-56531000D02*
X177681000Y-57580000D01*
X177681000Y-59260000D02*
X177681000Y-60309000D01*
X177721000Y-56550000D02*
X177721000Y-57580000D01*
X177721000Y-59260000D02*
X177721000Y-60290000D01*
X177761000Y-56569000D02*
X177761000Y-57580000D01*
X177761000Y-59260000D02*
X177761000Y-60271000D01*
X177801000Y-56590000D02*
X177801000Y-57580000D01*
X177801000Y-59260000D02*
X177801000Y-60250000D01*
X177841000Y-56612000D02*
X177841000Y-57580000D01*
X177841000Y-59260000D02*
X177841000Y-60228000D01*
X177881000Y-56635000D02*
X177881000Y-57580000D01*
X177881000Y-59260000D02*
X177881000Y-60205000D01*
X177921000Y-56660000D02*
X177921000Y-57580000D01*
X177921000Y-59260000D02*
X177921000Y-60180000D01*
X177961000Y-56685000D02*
X177961000Y-57580000D01*
X177961000Y-59260000D02*
X177961000Y-60155000D01*
X178001000Y-56712000D02*
X178001000Y-57580000D01*
X178001000Y-59260000D02*
X178001000Y-60128000D01*
X178041000Y-56740000D02*
X178041000Y-57580000D01*
X178041000Y-59260000D02*
X178041000Y-60100000D01*
X178081000Y-56770000D02*
X178081000Y-57580000D01*
X178081000Y-59260000D02*
X178081000Y-60070000D01*
X178121000Y-56801000D02*
X178121000Y-57580000D01*
X178121000Y-59260000D02*
X178121000Y-60039000D01*
X178161000Y-56833000D02*
X178161000Y-57580000D01*
X178161000Y-59260000D02*
X178161000Y-60007000D01*
X178201000Y-56868000D02*
X178201000Y-57580000D01*
X178201000Y-59260000D02*
X178201000Y-59972000D01*
X178241000Y-56904000D02*
X178241000Y-57580000D01*
X178241000Y-59260000D02*
X178241000Y-59936000D01*
X178281000Y-56942000D02*
X178281000Y-57580000D01*
X178281000Y-59260000D02*
X178281000Y-59898000D01*
X178321000Y-56982000D02*
X178321000Y-57580000D01*
X178321000Y-59260000D02*
X178321000Y-59858000D01*
X178361000Y-57024000D02*
X178361000Y-57580000D01*
X178361000Y-59260000D02*
X178361000Y-59816000D01*
X178401000Y-57069000D02*
X178401000Y-57580000D01*
X178401000Y-59260000D02*
X178401000Y-59771000D01*
X178441000Y-57116000D02*
X178441000Y-57580000D01*
X178441000Y-59260000D02*
X178441000Y-59724000D01*
X178481000Y-57166000D02*
X178481000Y-57580000D01*
X178481000Y-59260000D02*
X178481000Y-59674000D01*
X178521000Y-57220000D02*
X178521000Y-57580000D01*
X178521000Y-59260000D02*
X178521000Y-59620000D01*
X178561000Y-57278000D02*
X178561000Y-57580000D01*
X178561000Y-59260000D02*
X178561000Y-59562000D01*
X178601000Y-57340000D02*
X178601000Y-57580000D01*
X178601000Y-59260000D02*
X178601000Y-59500000D01*
X178641000Y-57407000D02*
X178641000Y-59433000D01*
X178681000Y-57480000D02*
X178681000Y-59360000D01*
X178721000Y-57561000D02*
X178721000Y-59279000D01*
X178761000Y-57652000D02*
X178761000Y-59188000D01*
X178801000Y-57756000D02*
X178801000Y-59084000D01*
X178841000Y-57883000D02*
X178841000Y-58957000D01*
X178881000Y-58050000D02*
X178881000Y-58790000D01*
X178920000Y-58420000D02*
G75*
G03*
X178920000Y-58420000I-2120000J0D01*
G01*
%TO.C,J3*%
X158690000Y-87690000D02*
X158690000Y-86360000D01*
X160020000Y-87690000D02*
X158690000Y-87690000D01*
X161290000Y-87690000D02*
X163890000Y-87690000D01*
X161290000Y-87690000D02*
X161290000Y-85030000D01*
X163890000Y-87690000D02*
X163890000Y-85030000D01*
X161290000Y-85030000D02*
X163890000Y-85030000D01*
%TO.C,R1*%
X135890000Y-62000000D02*
X135890000Y-62770000D01*
X137260000Y-62770000D02*
X134520000Y-62770000D01*
X134520000Y-62770000D02*
X134520000Y-69310000D01*
X137260000Y-69310000D02*
X137260000Y-62770000D01*
X134520000Y-69310000D02*
X137260000Y-69310000D01*
X135890000Y-70080000D02*
X135890000Y-69310000D01*
%TO.C,J2*%
X167440000Y-82350000D02*
X168860000Y-82350000D01*
X167440000Y-94070000D02*
X167440000Y-82350000D01*
X168860000Y-82350000D02*
X168860000Y-86850000D01*
X169700000Y-84260000D02*
X170300000Y-84260000D01*
X169750000Y-87960000D02*
X169750000Y-93460000D01*
X169750000Y-93460000D02*
X170250000Y-93460000D01*
X170000000Y-84860000D02*
X169700000Y-84260000D01*
X170250000Y-87960000D02*
X169750000Y-87960000D01*
X170250000Y-93460000D02*
X170250000Y-87960000D01*
X170300000Y-84260000D02*
X170000000Y-84860000D01*
X172250000Y-87960000D02*
X172250000Y-93460000D01*
X172250000Y-93460000D02*
X172750000Y-93460000D01*
X172500000Y-94070000D02*
X167440000Y-94070000D01*
X172500000Y-94070000D02*
X177560000Y-94070000D01*
X172750000Y-87960000D02*
X172250000Y-87960000D01*
X172750000Y-93460000D02*
X172750000Y-87960000D01*
X174750000Y-87960000D02*
X174750000Y-93460000D01*
X174750000Y-93460000D02*
X175250000Y-93460000D01*
X175250000Y-87960000D02*
X174750000Y-87960000D01*
X175250000Y-93460000D02*
X175250000Y-87960000D01*
X176140000Y-82350000D02*
X176140000Y-86850000D01*
X177560000Y-82350000D02*
X176140000Y-82350000D01*
X177560000Y-94070000D02*
X177560000Y-82350000D01*
%TO.C,J4*%
X150260000Y-35060000D02*
X150260000Y-36060000D01*
X150260000Y-36060000D02*
X151260000Y-35560000D01*
X151260000Y-35560000D02*
X150260000Y-35060000D01*
X151650000Y-30350000D02*
X160770000Y-30350000D01*
X151650000Y-53830000D02*
X152960000Y-53830000D01*
X151650000Y-81410000D02*
X151650000Y-30350000D01*
X152960000Y-31650000D02*
X159460000Y-31650000D01*
X152960000Y-53830000D02*
X152960000Y-31650000D01*
X152960000Y-57930000D02*
X151650000Y-57930000D01*
X152960000Y-57930000D02*
X152960000Y-57930000D01*
X152960000Y-80110000D02*
X152960000Y-57930000D01*
X159460000Y-31650000D02*
X159460000Y-80110000D01*
X159460000Y-80110000D02*
X152960000Y-80110000D01*
X160770000Y-30350000D02*
X160770000Y-81410000D01*
X160770000Y-81410000D02*
X151650000Y-81410000D01*
%TO.C,MUX1*%
X148650000Y-54730000D02*
X148650000Y-34170000D01*
X148650000Y-34170000D02*
X138370000Y-34170000D01*
X146160000Y-54670000D02*
X146160000Y-34230000D01*
X146160000Y-34230000D02*
X140860000Y-34230000D01*
X144510000Y-54670000D02*
X146160000Y-54670000D01*
X140860000Y-54670000D02*
X142510000Y-54670000D01*
X140860000Y-34230000D02*
X140860000Y-54670000D01*
X138370000Y-54730000D02*
X148650000Y-54730000D01*
X138370000Y-34170000D02*
X138370000Y-54730000D01*
X144510000Y-54670000D02*
G75*
G03*
X142510000Y-54670000I-1000000J0D01*
G01*
%TO.C,C3*%
X137889801Y-54535000D02*
X137489801Y-54535000D01*
X137689801Y-54735000D02*
X137689801Y-54335000D01*
X135620000Y-55420000D02*
X135620000Y-51260000D01*
X135580000Y-55420000D02*
X135580000Y-51260000D01*
X135540000Y-55419000D02*
X135540000Y-51261000D01*
X135500000Y-55417000D02*
X135500000Y-51263000D01*
X135460000Y-55414000D02*
X135460000Y-51266000D01*
X135420000Y-55411000D02*
X135420000Y-54180000D01*
X135420000Y-52500000D02*
X135420000Y-51269000D01*
X135380000Y-55407000D02*
X135380000Y-54180000D01*
X135380000Y-52500000D02*
X135380000Y-51273000D01*
X135340000Y-55402000D02*
X135340000Y-54180000D01*
X135340000Y-52500000D02*
X135340000Y-51278000D01*
X135300000Y-55396000D02*
X135300000Y-54180000D01*
X135300000Y-52500000D02*
X135300000Y-51284000D01*
X135260000Y-55390000D02*
X135260000Y-54180000D01*
X135260000Y-52500000D02*
X135260000Y-51290000D01*
X135220000Y-55382000D02*
X135220000Y-54180000D01*
X135220000Y-52500000D02*
X135220000Y-51298000D01*
X135180000Y-55374000D02*
X135180000Y-54180000D01*
X135180000Y-52500000D02*
X135180000Y-51306000D01*
X135140000Y-55365000D02*
X135140000Y-54180000D01*
X135140000Y-52500000D02*
X135140000Y-51315000D01*
X135100000Y-55356000D02*
X135100000Y-54180000D01*
X135100000Y-52500000D02*
X135100000Y-51324000D01*
X135060000Y-55345000D02*
X135060000Y-54180000D01*
X135060000Y-52500000D02*
X135060000Y-51335000D01*
X135020000Y-55334000D02*
X135020000Y-54180000D01*
X135020000Y-52500000D02*
X135020000Y-51346000D01*
X134980000Y-55322000D02*
X134980000Y-54180000D01*
X134980000Y-52500000D02*
X134980000Y-51358000D01*
X134940000Y-55308000D02*
X134940000Y-54180000D01*
X134940000Y-52500000D02*
X134940000Y-51372000D01*
X134899000Y-55294000D02*
X134899000Y-54180000D01*
X134899000Y-52500000D02*
X134899000Y-51386000D01*
X134859000Y-55280000D02*
X134859000Y-54180000D01*
X134859000Y-52500000D02*
X134859000Y-51400000D01*
X134819000Y-55264000D02*
X134819000Y-54180000D01*
X134819000Y-52500000D02*
X134819000Y-51416000D01*
X134779000Y-55247000D02*
X134779000Y-54180000D01*
X134779000Y-52500000D02*
X134779000Y-51433000D01*
X134739000Y-55229000D02*
X134739000Y-54180000D01*
X134739000Y-52500000D02*
X134739000Y-51451000D01*
X134699000Y-55210000D02*
X134699000Y-54180000D01*
X134699000Y-52500000D02*
X134699000Y-51470000D01*
X134659000Y-55191000D02*
X134659000Y-54180000D01*
X134659000Y-52500000D02*
X134659000Y-51489000D01*
X134619000Y-55170000D02*
X134619000Y-54180000D01*
X134619000Y-52500000D02*
X134619000Y-51510000D01*
X134579000Y-55148000D02*
X134579000Y-54180000D01*
X134579000Y-52500000D02*
X134579000Y-51532000D01*
X134539000Y-55125000D02*
X134539000Y-54180000D01*
X134539000Y-52500000D02*
X134539000Y-51555000D01*
X134499000Y-55100000D02*
X134499000Y-54180000D01*
X134499000Y-52500000D02*
X134499000Y-51580000D01*
X134459000Y-55075000D02*
X134459000Y-54180000D01*
X134459000Y-52500000D02*
X134459000Y-51605000D01*
X134419000Y-55048000D02*
X134419000Y-54180000D01*
X134419000Y-52500000D02*
X134419000Y-51632000D01*
X134379000Y-55020000D02*
X134379000Y-54180000D01*
X134379000Y-52500000D02*
X134379000Y-51660000D01*
X134339000Y-54990000D02*
X134339000Y-54180000D01*
X134339000Y-52500000D02*
X134339000Y-51690000D01*
X134299000Y-54959000D02*
X134299000Y-54180000D01*
X134299000Y-52500000D02*
X134299000Y-51721000D01*
X134259000Y-54927000D02*
X134259000Y-54180000D01*
X134259000Y-52500000D02*
X134259000Y-51753000D01*
X134219000Y-54892000D02*
X134219000Y-54180000D01*
X134219000Y-52500000D02*
X134219000Y-51788000D01*
X134179000Y-54856000D02*
X134179000Y-54180000D01*
X134179000Y-52500000D02*
X134179000Y-51824000D01*
X134139000Y-54818000D02*
X134139000Y-54180000D01*
X134139000Y-52500000D02*
X134139000Y-51862000D01*
X134099000Y-54778000D02*
X134099000Y-54180000D01*
X134099000Y-52500000D02*
X134099000Y-51902000D01*
X134059000Y-54736000D02*
X134059000Y-54180000D01*
X134059000Y-52500000D02*
X134059000Y-51944000D01*
X134019000Y-54691000D02*
X134019000Y-54180000D01*
X134019000Y-52500000D02*
X134019000Y-51989000D01*
X133979000Y-54644000D02*
X133979000Y-54180000D01*
X133979000Y-52500000D02*
X133979000Y-52036000D01*
X133939000Y-54594000D02*
X133939000Y-54180000D01*
X133939000Y-52500000D02*
X133939000Y-52086000D01*
X133899000Y-54540000D02*
X133899000Y-54180000D01*
X133899000Y-52500000D02*
X133899000Y-52140000D01*
X133859000Y-54482000D02*
X133859000Y-54180000D01*
X133859000Y-52500000D02*
X133859000Y-52198000D01*
X133819000Y-54420000D02*
X133819000Y-54180000D01*
X133819000Y-52500000D02*
X133819000Y-52260000D01*
X133779000Y-54353000D02*
X133779000Y-52327000D01*
X133739000Y-54280000D02*
X133739000Y-52400000D01*
X133699000Y-54199000D02*
X133699000Y-52481000D01*
X133659000Y-54108000D02*
X133659000Y-52572000D01*
X133619000Y-54004000D02*
X133619000Y-52676000D01*
X133579000Y-53877000D02*
X133579000Y-52803000D01*
X133539000Y-53710000D02*
X133539000Y-52970000D01*
X137740000Y-53340000D02*
G75*
G03*
X137740000Y-53340000I-2120000J0D01*
G01*
%TO.C,SR2*%
X163770000Y-57030000D02*
X163770000Y-77590000D01*
X163770000Y-77590000D02*
X174050000Y-77590000D01*
X166260000Y-57090000D02*
X166260000Y-77530000D01*
X166260000Y-77530000D02*
X171560000Y-77530000D01*
X167910000Y-57090000D02*
X166260000Y-57090000D01*
X171560000Y-57090000D02*
X169910000Y-57090000D01*
X171560000Y-77530000D02*
X171560000Y-57090000D01*
X174050000Y-57030000D02*
X163770000Y-57030000D01*
X174050000Y-77590000D02*
X174050000Y-57030000D01*
X167910000Y-57090000D02*
G75*
G03*
X169910000Y-57090000I1000000J0D01*
G01*
%TO.C,SR1*%
X163770000Y-34170000D02*
X163770000Y-54730000D01*
X163770000Y-54730000D02*
X174050000Y-54730000D01*
X166260000Y-34230000D02*
X166260000Y-54670000D01*
X166260000Y-54670000D02*
X171560000Y-54670000D01*
X167910000Y-34230000D02*
X166260000Y-34230000D01*
X171560000Y-34230000D02*
X169910000Y-34230000D01*
X171560000Y-54670000D02*
X171560000Y-34230000D01*
X174050000Y-34170000D02*
X163770000Y-34170000D01*
X174050000Y-54730000D02*
X174050000Y-34170000D01*
X167910000Y-34230000D02*
G75*
G03*
X169910000Y-34230000I1000000J0D01*
G01*
%TO.C,MUX2*%
X148650000Y-77590000D02*
X148650000Y-57030000D01*
X148650000Y-57030000D02*
X138370000Y-57030000D01*
X146160000Y-77530000D02*
X146160000Y-57090000D01*
X146160000Y-57090000D02*
X140860000Y-57090000D01*
X144510000Y-77530000D02*
X146160000Y-77530000D01*
X140860000Y-77530000D02*
X142510000Y-77530000D01*
X140860000Y-57090000D02*
X140860000Y-77530000D01*
X138370000Y-77590000D02*
X148650000Y-77590000D01*
X138370000Y-57030000D02*
X138370000Y-77590000D01*
X144510000Y-77530000D02*
G75*
G03*
X142510000Y-77530000I-1000000J0D01*
G01*
%TO.C,G\u002A\u002A\u002A*%
G36*
X181794444Y-86679065D02*
G01*
X181794444Y-86866599D01*
X181567659Y-86866599D01*
X181340873Y-86866599D01*
X181340873Y-86679065D01*
X181340873Y-86491530D01*
X181567659Y-86491530D01*
X181794444Y-86491530D01*
X181794444Y-86679065D01*
G37*
G36*
X181347415Y-85944054D02*
G01*
X181589465Y-85946372D01*
X181591819Y-86131726D01*
X181594173Y-86317080D01*
X181349769Y-86317080D01*
X181105365Y-86317080D01*
X181105365Y-86129407D01*
X181105365Y-85941735D01*
X181347415Y-85944054D01*
G37*
G36*
X182012508Y-85584523D02*
G01*
X182012508Y-85776555D01*
X181766096Y-85774238D01*
X181519685Y-85771922D01*
X181517334Y-85582207D01*
X181514983Y-85392492D01*
X181763745Y-85392492D01*
X182012508Y-85392492D01*
X182012508Y-85584523D01*
G37*
G36*
X182641723Y-87215599D02*
G01*
X182686974Y-87262582D01*
X182728172Y-87305696D01*
X182763776Y-87343303D01*
X182792245Y-87373764D01*
X182812038Y-87395438D01*
X182821616Y-87406686D01*
X182822249Y-87407716D01*
X182814528Y-87410046D01*
X182790184Y-87412031D01*
X182750037Y-87413650D01*
X182694907Y-87414880D01*
X182625613Y-87415701D01*
X182542975Y-87416089D01*
X182510248Y-87416118D01*
X182195340Y-87416118D01*
X182197691Y-87226403D01*
X182200042Y-87036688D01*
X182332073Y-87034286D01*
X182464104Y-87031883D01*
X182641723Y-87215599D01*
G37*
G36*
X182551158Y-85394250D02*
G01*
X182612631Y-85394593D01*
X182664601Y-85395238D01*
X182705192Y-85396160D01*
X182732527Y-85397334D01*
X182744731Y-85398734D01*
X182745200Y-85399091D01*
X182739132Y-85406593D01*
X182721950Y-85424593D01*
X182695183Y-85451571D01*
X182660361Y-85486007D01*
X182619015Y-85526381D01*
X182572674Y-85571172D01*
X182551718Y-85591292D01*
X182358236Y-85776691D01*
X182213720Y-85774306D01*
X182069204Y-85771922D01*
X182069204Y-85584387D01*
X182069204Y-85396853D01*
X182407202Y-85394570D01*
X182482056Y-85394234D01*
X182551158Y-85394250D01*
G37*
G36*
X181288538Y-86679065D02*
G01*
X181288538Y-86867480D01*
X181080714Y-86864859D01*
X180872890Y-86862238D01*
X180836557Y-86838176D01*
X180808448Y-86815024D01*
X180782451Y-86786477D01*
X180776164Y-86777756D01*
X180762816Y-86754850D01*
X180755491Y-86732702D01*
X180752508Y-86704464D01*
X180752102Y-86679702D01*
X180753196Y-86643692D01*
X180757603Y-86618120D01*
X180767012Y-86596054D01*
X180776143Y-86581024D01*
X180799070Y-86552727D01*
X180827390Y-86526607D01*
X180836537Y-86519967D01*
X180872890Y-86495892D01*
X181080714Y-86493270D01*
X181288538Y-86490649D01*
X181288538Y-86679065D01*
G37*
G36*
X182281323Y-86009611D02*
G01*
X182280242Y-86045252D01*
X182278472Y-86092187D01*
X182276260Y-86144290D01*
X182273875Y-86194964D01*
X182271639Y-86238221D01*
X182269601Y-86274661D01*
X182267955Y-86301033D01*
X182266893Y-86314086D01*
X182266736Y-86314899D01*
X182258038Y-86315403D01*
X182233865Y-86315866D01*
X182196189Y-86316274D01*
X182146981Y-86316613D01*
X182088210Y-86316870D01*
X182021847Y-86317030D01*
X181955811Y-86317080D01*
X181646161Y-86317080D01*
X181646161Y-86129545D01*
X181646161Y-85942011D01*
X181964534Y-85942011D01*
X182282906Y-85942011D01*
X182281323Y-86009611D01*
G37*
G36*
X182137156Y-86491581D02*
G01*
X182189653Y-86491834D01*
X182228685Y-86492442D01*
X182256244Y-86493557D01*
X182274318Y-86495329D01*
X182284899Y-86497912D01*
X182289976Y-86501456D01*
X182291540Y-86506114D01*
X182291629Y-86508500D01*
X182292274Y-86523504D01*
X182294033Y-86551849D01*
X182296637Y-86589486D01*
X182299819Y-86632367D01*
X182299852Y-86632796D01*
X182303573Y-86681923D01*
X182307286Y-86731894D01*
X182310511Y-86776208D01*
X182312428Y-86803361D01*
X182316781Y-86866599D01*
X182081780Y-86866599D01*
X181846780Y-86866599D01*
X181846780Y-86679065D01*
X181846780Y-86491530D01*
X182069204Y-86491530D01*
X182137156Y-86491581D01*
G37*
G36*
X181044307Y-86129545D02*
G01*
X181044307Y-86317080D01*
X180845061Y-86317080D01*
X180780813Y-86317007D01*
X180731473Y-86316645D01*
X180694502Y-86315777D01*
X180667363Y-86314185D01*
X180647518Y-86311654D01*
X180632430Y-86307967D01*
X180619561Y-86302906D01*
X180607372Y-86296784D01*
X180565032Y-86265385D01*
X180534765Y-86224306D01*
X180516935Y-86176800D01*
X180511904Y-86126119D01*
X180520038Y-86075515D01*
X180541699Y-86028241D01*
X180573183Y-85991120D01*
X180600134Y-85970966D01*
X180629120Y-85955376D01*
X180640273Y-85951363D01*
X180659316Y-85948499D01*
X180692752Y-85946008D01*
X180737529Y-85944021D01*
X180790597Y-85942667D01*
X180848905Y-85942075D01*
X180858953Y-85942060D01*
X181044307Y-85942011D01*
X181044307Y-86129545D01*
G37*
G36*
X182045877Y-87033694D02*
G01*
X182084584Y-87034252D01*
X182111859Y-87035297D01*
X182123720Y-87036553D01*
X182130268Y-87038557D01*
X182135169Y-87042415D01*
X182138661Y-87050392D01*
X182140983Y-87064755D01*
X182142374Y-87087770D01*
X182143072Y-87121706D01*
X182143316Y-87168827D01*
X182143346Y-87222935D01*
X182143078Y-87277533D01*
X182142331Y-87326119D01*
X182141186Y-87366023D01*
X182139727Y-87394576D01*
X182138038Y-87409107D01*
X182137531Y-87410303D01*
X182127405Y-87412083D01*
X182102573Y-87413643D01*
X182065776Y-87414893D01*
X182019753Y-87415746D01*
X181967243Y-87416111D01*
X181958549Y-87416118D01*
X181785382Y-87416118D01*
X181787732Y-87226403D01*
X181790083Y-87036688D01*
X181947089Y-87034206D01*
X181998970Y-87033664D01*
X182045877Y-87033694D01*
G37*
G36*
X181276071Y-85394491D02*
G01*
X181458627Y-85396853D01*
X181460982Y-85582414D01*
X181461615Y-85645179D01*
X181461634Y-85692610D01*
X181460923Y-85726810D01*
X181459366Y-85749882D01*
X181456850Y-85763929D01*
X181453260Y-85771056D01*
X181450573Y-85772872D01*
X181438397Y-85774179D01*
X181411509Y-85775082D01*
X181372636Y-85775556D01*
X181324508Y-85775573D01*
X181269852Y-85775109D01*
X181247600Y-85774796D01*
X181180543Y-85773589D01*
X181128356Y-85771937D01*
X181088463Y-85769260D01*
X181058290Y-85764976D01*
X181035262Y-85758504D01*
X181016804Y-85749265D01*
X181000341Y-85736676D01*
X180983298Y-85720158D01*
X180977150Y-85713789D01*
X180943005Y-85667014D01*
X180925183Y-85616425D01*
X180923652Y-85564274D01*
X180938379Y-85512816D01*
X180969331Y-85464305D01*
X180980921Y-85451536D01*
X181000413Y-85433252D01*
X181020552Y-85419118D01*
X181043805Y-85408657D01*
X181072645Y-85401390D01*
X181109540Y-85396841D01*
X181156960Y-85394533D01*
X181217376Y-85393987D01*
X181276071Y-85394491D01*
G37*
G36*
X181642101Y-87033173D02*
G01*
X181679760Y-87034346D01*
X181704635Y-87036573D01*
X181718270Y-87039914D01*
X181720681Y-87041363D01*
X181725136Y-87048001D01*
X181728459Y-87060946D01*
X181730797Y-87082370D01*
X181732299Y-87114441D01*
X181733112Y-87159331D01*
X181733384Y-87219209D01*
X181733387Y-87228198D01*
X181733111Y-87281975D01*
X181732343Y-87329712D01*
X181731168Y-87368699D01*
X181729673Y-87396221D01*
X181727946Y-87409566D01*
X181727572Y-87410303D01*
X181717511Y-87412003D01*
X181692605Y-87413507D01*
X181655454Y-87414738D01*
X181608658Y-87415619D01*
X181554816Y-87416073D01*
X181531035Y-87416118D01*
X181462788Y-87415910D01*
X181409404Y-87414986D01*
X181368300Y-87412899D01*
X181336894Y-87409202D01*
X181312606Y-87403448D01*
X181292855Y-87395190D01*
X181275059Y-87383979D01*
X181256636Y-87369370D01*
X181255446Y-87368369D01*
X181219590Y-87327811D01*
X181198134Y-87280980D01*
X181190745Y-87230941D01*
X181197090Y-87180763D01*
X181216837Y-87133513D01*
X181249651Y-87092257D01*
X181288538Y-87063646D01*
X181336512Y-87036688D01*
X181522243Y-87033753D01*
X181590110Y-87032995D01*
X181642101Y-87033173D01*
G37*
G36*
X182968396Y-84304822D02*
G01*
X183007992Y-84316407D01*
X183033375Y-84333023D01*
X183043216Y-84342943D01*
X183051297Y-84353251D01*
X183058335Y-84366265D01*
X183065045Y-84384303D01*
X183072144Y-84409683D01*
X183080348Y-84444724D01*
X183090371Y-84491744D01*
X183102931Y-84553060D01*
X183106007Y-84568213D01*
X183116285Y-84618536D01*
X183125766Y-84664333D01*
X183133746Y-84702255D01*
X183139522Y-84728950D01*
X183141992Y-84739618D01*
X183144216Y-84751886D01*
X183140935Y-84759935D01*
X183128811Y-84766036D01*
X183104503Y-84772463D01*
X183088288Y-84776159D01*
X183042252Y-84786239D01*
X182993574Y-84796421D01*
X182945723Y-84806032D01*
X182902170Y-84814400D01*
X182866384Y-84820853D01*
X182841836Y-84824719D01*
X182833375Y-84825528D01*
X182827657Y-84822779D01*
X182821887Y-84813185D01*
X182815481Y-84794721D01*
X182807853Y-84765365D01*
X182798418Y-84723092D01*
X182786591Y-84665880D01*
X182785170Y-84658843D01*
X182773560Y-84600560D01*
X182765256Y-84556393D01*
X182759944Y-84523391D01*
X182757311Y-84498602D01*
X182757042Y-84479078D01*
X182758826Y-84461867D01*
X182762343Y-84444039D01*
X182780095Y-84399076D01*
X182810178Y-84358223D01*
X182848319Y-84326311D01*
X182880024Y-84311022D01*
X182923838Y-84302754D01*
X182968396Y-84304822D01*
G37*
G36*
X183312164Y-84951608D02*
G01*
X183355508Y-84994183D01*
X183396793Y-85034478D01*
X183433694Y-85070245D01*
X183463889Y-85099234D01*
X183485053Y-85119198D01*
X183490976Y-85124608D01*
X183510699Y-85143863D01*
X183517232Y-85155199D01*
X183512782Y-85160259D01*
X183499575Y-85163631D01*
X183473000Y-85169588D01*
X183436798Y-85177316D01*
X183394711Y-85186001D01*
X183390667Y-85186822D01*
X183349796Y-85195156D01*
X183295801Y-85206253D01*
X183232632Y-85219293D01*
X183164239Y-85233457D01*
X183094571Y-85247926D01*
X183027578Y-85261881D01*
X182967210Y-85274502D01*
X182918387Y-85284765D01*
X182904378Y-85286320D01*
X182896086Y-85280808D01*
X182890191Y-85264348D01*
X182886360Y-85247296D01*
X182879544Y-85213297D01*
X182873310Y-85179380D01*
X182871742Y-85170067D01*
X182867790Y-85147614D01*
X182861331Y-85112954D01*
X182853289Y-85070985D01*
X182845363Y-85030507D01*
X182837055Y-84987896D01*
X182829863Y-84949837D01*
X182824572Y-84920554D01*
X182821994Y-84904509D01*
X182820766Y-84897738D01*
X182820296Y-84892434D01*
X182822525Y-84887979D01*
X182829394Y-84883758D01*
X182842844Y-84879154D01*
X182864819Y-84873551D01*
X182897258Y-84866331D01*
X182942105Y-84856879D01*
X183001300Y-84844578D01*
X183028682Y-84838877D01*
X183168243Y-84809776D01*
X183312164Y-84951608D01*
G37*
G36*
X183313848Y-87364272D02*
G01*
X183267132Y-87360709D01*
X183223711Y-87357057D01*
X183186906Y-87353573D01*
X183160038Y-87350512D01*
X183146430Y-87348131D01*
X183145486Y-87347670D01*
X183143784Y-87336937D01*
X183143839Y-87313244D01*
X183145588Y-87280981D01*
X183146644Y-87267835D01*
X183150571Y-87220966D01*
X183154785Y-87167778D01*
X183158408Y-87119359D01*
X183158580Y-87116961D01*
X183164046Y-87040228D01*
X183131254Y-87026650D01*
X183104047Y-87014913D01*
X183070738Y-86999915D01*
X183052336Y-86991380D01*
X183035319Y-86983094D01*
X183022072Y-86977554D01*
X183010342Y-86976012D01*
X182997879Y-86979720D01*
X182982430Y-86989929D01*
X182961743Y-87007890D01*
X182933568Y-87034857D01*
X182895652Y-87072080D01*
X182880602Y-87086843D01*
X182847218Y-87119208D01*
X182818178Y-87146739D01*
X182795756Y-87167330D01*
X182782223Y-87178877D01*
X182779411Y-87180610D01*
X182771137Y-87174562D01*
X182753405Y-87158022D01*
X182728503Y-87133393D01*
X182698720Y-87103080D01*
X182666345Y-87069486D01*
X182633667Y-87035017D01*
X182602975Y-87002077D01*
X182576557Y-86973069D01*
X182556702Y-86950399D01*
X182545699Y-86936469D01*
X182544233Y-86933569D01*
X182550157Y-86924474D01*
X182566802Y-86905643D01*
X182592119Y-86879224D01*
X182624059Y-86847368D01*
X182654060Y-86818403D01*
X182764237Y-86713511D01*
X182741595Y-86670927D01*
X182726880Y-86639236D01*
X182711611Y-86600093D01*
X182701178Y-86568659D01*
X182683404Y-86508975D01*
X182539851Y-86508975D01*
X182396299Y-86508975D01*
X182396299Y-86397081D01*
X182887682Y-86397081D01*
X182901053Y-86477454D01*
X182927579Y-86553602D01*
X182966266Y-86623896D01*
X183016119Y-86686710D01*
X183076143Y-86740414D01*
X183145344Y-86783381D01*
X183222727Y-86813982D01*
X183307298Y-86830590D01*
X183355777Y-86833168D01*
X183447820Y-86825582D01*
X183532805Y-86802982D01*
X183609638Y-86766748D01*
X183677225Y-86718260D01*
X183734472Y-86658898D01*
X183780286Y-86590041D01*
X183813571Y-86513069D01*
X183833235Y-86429363D01*
X183838183Y-86340303D01*
X183827321Y-86247267D01*
X183825852Y-86240233D01*
X183803366Y-86172687D01*
X183766506Y-86105769D01*
X183718109Y-86042955D01*
X183661013Y-85987724D01*
X183598054Y-85943553D01*
X183572973Y-85930290D01*
X183505453Y-85902562D01*
X183440291Y-85886780D01*
X183369218Y-85881061D01*
X183356419Y-85880953D01*
X183270895Y-85889423D01*
X183188726Y-85913891D01*
X183112136Y-85952950D01*
X183043351Y-86005188D01*
X182984598Y-86069198D01*
X182938101Y-86143570D01*
X182936452Y-86146893D01*
X182904387Y-86230173D01*
X182888462Y-86314112D01*
X182887682Y-86397081D01*
X182396299Y-86397081D01*
X182396299Y-86343453D01*
X182396299Y-86177931D01*
X182545573Y-86175545D01*
X182694847Y-86173158D01*
X182709825Y-86125184D01*
X182722894Y-86090232D01*
X182740669Y-86051081D01*
X182753370Y-86026893D01*
X182781939Y-85976576D01*
X182713415Y-85901984D01*
X182681232Y-85866781D01*
X182648854Y-85831074D01*
X182620745Y-85799802D01*
X182606080Y-85783284D01*
X182567268Y-85739176D01*
X182597357Y-85712733D01*
X182615302Y-85696697D01*
X182642503Y-85672066D01*
X182675398Y-85642078D01*
X182710425Y-85609972D01*
X182713667Y-85606991D01*
X182746832Y-85576721D01*
X182776419Y-85550146D01*
X182799539Y-85529831D01*
X182813301Y-85518343D01*
X182814593Y-85517388D01*
X182821338Y-85515133D01*
X182830395Y-85518054D01*
X182843536Y-85527700D01*
X182862533Y-85545616D01*
X182889157Y-85573349D01*
X182925178Y-85612447D01*
X182931948Y-85619878D01*
X182965673Y-85656523D01*
X182995538Y-85688195D01*
X183019517Y-85712807D01*
X183035584Y-85728273D01*
X183041488Y-85732670D01*
X183052597Y-85729308D01*
X183074264Y-85720603D01*
X183095228Y-85711391D01*
X183130052Y-85697159D01*
X183166590Y-85684605D01*
X183183507Y-85679827D01*
X183224939Y-85669542D01*
X183224979Y-85616061D01*
X183225526Y-85584315D01*
X183226968Y-85541669D01*
X183229060Y-85494630D01*
X183230673Y-85464453D01*
X183236327Y-85366324D01*
X183355830Y-85366324D01*
X183405618Y-85366761D01*
X183454607Y-85367953D01*
X183497382Y-85369723D01*
X183528534Y-85371891D01*
X183530257Y-85372065D01*
X183585180Y-85377806D01*
X183580000Y-85528556D01*
X183574820Y-85679306D01*
X183607040Y-85689734D01*
X183634822Y-85700202D01*
X183667275Y-85714429D01*
X183679982Y-85720565D01*
X183720706Y-85740969D01*
X183818126Y-85634330D01*
X183851340Y-85598700D01*
X183881112Y-85568124D01*
X183905239Y-85544759D01*
X183921517Y-85530761D01*
X183927062Y-85527691D01*
X183936845Y-85533329D01*
X183957199Y-85549021D01*
X183985927Y-85572936D01*
X184020830Y-85603241D01*
X184059710Y-85638106D01*
X184061587Y-85639815D01*
X184184597Y-85751939D01*
X184133145Y-85809904D01*
X184100923Y-85845930D01*
X184064699Y-85886015D01*
X184031994Y-85921839D01*
X184030220Y-85923766D01*
X183978746Y-85979663D01*
X184016068Y-86054028D01*
X184033225Y-86090111D01*
X184047546Y-86123727D01*
X184056848Y-86149597D01*
X184058817Y-86157317D01*
X184064243Y-86186242D01*
X184220278Y-86186242D01*
X184376313Y-86186242D01*
X184376352Y-86258203D01*
X184376911Y-86299275D01*
X184378376Y-86349681D01*
X184380489Y-86401347D01*
X184381761Y-86426111D01*
X184383342Y-86465454D01*
X184383495Y-86498243D01*
X184382278Y-86520644D01*
X184380267Y-86528601D01*
X184369709Y-86530716D01*
X184344647Y-86532546D01*
X184308021Y-86533972D01*
X184262771Y-86534876D01*
X184218824Y-86535143D01*
X184064243Y-86535143D01*
X184058763Y-86564355D01*
X184052556Y-86584430D01*
X184040220Y-86615128D01*
X184023770Y-86651644D01*
X184011603Y-86676672D01*
X183969923Y-86759777D01*
X184072565Y-86867704D01*
X184106189Y-86903664D01*
X184134960Y-86935592D01*
X184156947Y-86961248D01*
X184170216Y-86978393D01*
X184173270Y-86984427D01*
X184166510Y-86993072D01*
X184149287Y-87011000D01*
X184124042Y-87035928D01*
X184093219Y-87065574D01*
X184059258Y-87097656D01*
X184024604Y-87129892D01*
X183991697Y-87159998D01*
X183962981Y-87185694D01*
X183940896Y-87204697D01*
X183927887Y-87214724D01*
X183925768Y-87215711D01*
X183917642Y-87209753D01*
X183899674Y-87193094D01*
X183873940Y-87167772D01*
X183842519Y-87135824D01*
X183812840Y-87104929D01*
X183707301Y-86993935D01*
X183636650Y-87021854D01*
X183602703Y-87034597D01*
X183573556Y-87044323D01*
X183554014Y-87049473D01*
X183550294Y-87049906D01*
X183531561Y-87053382D01*
X183525179Y-87056448D01*
X183521351Y-87066847D01*
X183516801Y-87091159D01*
X183511906Y-87125887D01*
X183507038Y-87167532D01*
X183502572Y-87212598D01*
X183498882Y-87257586D01*
X183496343Y-87299000D01*
X183495329Y-87333341D01*
X183495325Y-87335435D01*
X183494503Y-87358684D01*
X183489553Y-87369369D01*
X183476778Y-87372366D01*
X183467223Y-87372506D01*
X183440546Y-87371863D01*
X183403876Y-87370105D01*
X183360537Y-87367490D01*
X183355777Y-87367162D01*
X183313848Y-87364272D01*
G37*
%TO.C,C1*%
X174530199Y-34365000D02*
X174930199Y-34365000D01*
X174730199Y-34165000D02*
X174730199Y-34565000D01*
X176800000Y-33480000D02*
X176800000Y-37640000D01*
X176840000Y-33480000D02*
X176840000Y-37640000D01*
X176880000Y-33481000D02*
X176880000Y-37639000D01*
X176920000Y-33483000D02*
X176920000Y-37637000D01*
X176960000Y-33486000D02*
X176960000Y-37634000D01*
X177000000Y-33489000D02*
X177000000Y-34720000D01*
X177000000Y-36400000D02*
X177000000Y-37631000D01*
X177040000Y-33493000D02*
X177040000Y-34720000D01*
X177040000Y-36400000D02*
X177040000Y-37627000D01*
X177080000Y-33498000D02*
X177080000Y-34720000D01*
X177080000Y-36400000D02*
X177080000Y-37622000D01*
X177120000Y-33504000D02*
X177120000Y-34720000D01*
X177120000Y-36400000D02*
X177120000Y-37616000D01*
X177160000Y-33510000D02*
X177160000Y-34720000D01*
X177160000Y-36400000D02*
X177160000Y-37610000D01*
X177200000Y-33518000D02*
X177200000Y-34720000D01*
X177200000Y-36400000D02*
X177200000Y-37602000D01*
X177240000Y-33526000D02*
X177240000Y-34720000D01*
X177240000Y-36400000D02*
X177240000Y-37594000D01*
X177280000Y-33535000D02*
X177280000Y-34720000D01*
X177280000Y-36400000D02*
X177280000Y-37585000D01*
X177320000Y-33544000D02*
X177320000Y-34720000D01*
X177320000Y-36400000D02*
X177320000Y-37576000D01*
X177360000Y-33555000D02*
X177360000Y-34720000D01*
X177360000Y-36400000D02*
X177360000Y-37565000D01*
X177400000Y-33566000D02*
X177400000Y-34720000D01*
X177400000Y-36400000D02*
X177400000Y-37554000D01*
X177440000Y-33578000D02*
X177440000Y-34720000D01*
X177440000Y-36400000D02*
X177440000Y-37542000D01*
X177480000Y-33592000D02*
X177480000Y-34720000D01*
X177480000Y-36400000D02*
X177480000Y-37528000D01*
X177521000Y-33606000D02*
X177521000Y-34720000D01*
X177521000Y-36400000D02*
X177521000Y-37514000D01*
X177561000Y-33620000D02*
X177561000Y-34720000D01*
X177561000Y-36400000D02*
X177561000Y-37500000D01*
X177601000Y-33636000D02*
X177601000Y-34720000D01*
X177601000Y-36400000D02*
X177601000Y-37484000D01*
X177641000Y-33653000D02*
X177641000Y-34720000D01*
X177641000Y-36400000D02*
X177641000Y-37467000D01*
X177681000Y-33671000D02*
X177681000Y-34720000D01*
X177681000Y-36400000D02*
X177681000Y-37449000D01*
X177721000Y-33690000D02*
X177721000Y-34720000D01*
X177721000Y-36400000D02*
X177721000Y-37430000D01*
X177761000Y-33709000D02*
X177761000Y-34720000D01*
X177761000Y-36400000D02*
X177761000Y-37411000D01*
X177801000Y-33730000D02*
X177801000Y-34720000D01*
X177801000Y-36400000D02*
X177801000Y-37390000D01*
X177841000Y-33752000D02*
X177841000Y-34720000D01*
X177841000Y-36400000D02*
X177841000Y-37368000D01*
X177881000Y-33775000D02*
X177881000Y-34720000D01*
X177881000Y-36400000D02*
X177881000Y-37345000D01*
X177921000Y-33800000D02*
X177921000Y-34720000D01*
X177921000Y-36400000D02*
X177921000Y-37320000D01*
X177961000Y-33825000D02*
X177961000Y-34720000D01*
X177961000Y-36400000D02*
X177961000Y-37295000D01*
X178001000Y-33852000D02*
X178001000Y-34720000D01*
X178001000Y-36400000D02*
X178001000Y-37268000D01*
X178041000Y-33880000D02*
X178041000Y-34720000D01*
X178041000Y-36400000D02*
X178041000Y-37240000D01*
X178081000Y-33910000D02*
X178081000Y-34720000D01*
X178081000Y-36400000D02*
X178081000Y-37210000D01*
X178121000Y-33941000D02*
X178121000Y-34720000D01*
X178121000Y-36400000D02*
X178121000Y-37179000D01*
X178161000Y-33973000D02*
X178161000Y-34720000D01*
X178161000Y-36400000D02*
X178161000Y-37147000D01*
X178201000Y-34008000D02*
X178201000Y-34720000D01*
X178201000Y-36400000D02*
X178201000Y-37112000D01*
X178241000Y-34044000D02*
X178241000Y-34720000D01*
X178241000Y-36400000D02*
X178241000Y-37076000D01*
X178281000Y-34082000D02*
X178281000Y-34720000D01*
X178281000Y-36400000D02*
X178281000Y-37038000D01*
X178321000Y-34122000D02*
X178321000Y-34720000D01*
X178321000Y-36400000D02*
X178321000Y-36998000D01*
X178361000Y-34164000D02*
X178361000Y-34720000D01*
X178361000Y-36400000D02*
X178361000Y-36956000D01*
X178401000Y-34209000D02*
X178401000Y-34720000D01*
X178401000Y-36400000D02*
X178401000Y-36911000D01*
X178441000Y-34256000D02*
X178441000Y-34720000D01*
X178441000Y-36400000D02*
X178441000Y-36864000D01*
X178481000Y-34306000D02*
X178481000Y-34720000D01*
X178481000Y-36400000D02*
X178481000Y-36814000D01*
X178521000Y-34360000D02*
X178521000Y-34720000D01*
X178521000Y-36400000D02*
X178521000Y-36760000D01*
X178561000Y-34418000D02*
X178561000Y-34720000D01*
X178561000Y-36400000D02*
X178561000Y-36702000D01*
X178601000Y-34480000D02*
X178601000Y-34720000D01*
X178601000Y-36400000D02*
X178601000Y-36640000D01*
X178641000Y-34547000D02*
X178641000Y-36573000D01*
X178681000Y-34620000D02*
X178681000Y-36500000D01*
X178721000Y-34701000D02*
X178721000Y-36419000D01*
X178761000Y-34792000D02*
X178761000Y-36328000D01*
X178801000Y-34896000D02*
X178801000Y-36224000D01*
X178841000Y-35023000D02*
X178841000Y-36097000D01*
X178881000Y-35190000D02*
X178881000Y-35930000D01*
X178920000Y-35560000D02*
G75*
G03*
X178920000Y-35560000I-2120000J0D01*
G01*
%TO.C,J5*%
X167700000Y-78560000D02*
X167700000Y-79890000D01*
X166370000Y-78560000D02*
X167700000Y-78560000D01*
X165100000Y-78560000D02*
X162500000Y-78560000D01*
X165100000Y-78560000D02*
X165100000Y-81220000D01*
X162500000Y-78560000D02*
X162500000Y-81220000D01*
X165100000Y-81220000D02*
X162500000Y-81220000D01*
%TO.C,J1*%
X137440000Y-82350000D02*
X138860000Y-82350000D01*
X137440000Y-94070000D02*
X137440000Y-82350000D01*
X138860000Y-82350000D02*
X138860000Y-86850000D01*
X139700000Y-84260000D02*
X140300000Y-84260000D01*
X139750000Y-87960000D02*
X139750000Y-93460000D01*
X139750000Y-93460000D02*
X140250000Y-93460000D01*
X140000000Y-84860000D02*
X139700000Y-84260000D01*
X140250000Y-87960000D02*
X139750000Y-87960000D01*
X140250000Y-93460000D02*
X140250000Y-87960000D01*
X140300000Y-84260000D02*
X140000000Y-84860000D01*
X142250000Y-87960000D02*
X142250000Y-93460000D01*
X142250000Y-93460000D02*
X142750000Y-93460000D01*
X142750000Y-87960000D02*
X142250000Y-87960000D01*
X142750000Y-93460000D02*
X142750000Y-87960000D01*
X144750000Y-87960000D02*
X144750000Y-93460000D01*
X144750000Y-93460000D02*
X145250000Y-93460000D01*
X145250000Y-87960000D02*
X144750000Y-87960000D01*
X145250000Y-93460000D02*
X145250000Y-87960000D01*
X146250000Y-94070000D02*
X137440000Y-94070000D01*
X146250000Y-94070000D02*
X155060000Y-94070000D01*
X147250000Y-87960000D02*
X147250000Y-93460000D01*
X147250000Y-93460000D02*
X147750000Y-93460000D01*
X147750000Y-87960000D02*
X147250000Y-87960000D01*
X147750000Y-93460000D02*
X147750000Y-87960000D01*
X149750000Y-87960000D02*
X149750000Y-93460000D01*
X149750000Y-93460000D02*
X150250000Y-93460000D01*
X150250000Y-87960000D02*
X149750000Y-87960000D01*
X150250000Y-93460000D02*
X150250000Y-87960000D01*
X152250000Y-87960000D02*
X152250000Y-93460000D01*
X152250000Y-93460000D02*
X152750000Y-93460000D01*
X152750000Y-87960000D02*
X152250000Y-87960000D01*
X152750000Y-93460000D02*
X152750000Y-87960000D01*
X153640000Y-82350000D02*
X153640000Y-86850000D01*
X155060000Y-82350000D02*
X153640000Y-82350000D01*
X155060000Y-94070000D02*
X155060000Y-82350000D01*
%TD*%
M02*
